<?xml version="1.0" encoding="UTF-8" standalone="no"?>
<!DOCTYPE svg PUBLIC "-//W3C//DTD SVG 1.1//EN"
 "http://www.w3.org/Graphics/SVG/1.1/DTD/svg11.dtd">
<!-- Generated by graphviz version 9.0.0 (20230911.1827)
 -->
<!-- Title: G Pages: 1 -->
<svg width="441pt" height="1495pt"
 viewBox="0.00 0.00 440.70 1494.95" xmlns="http://www.w3.org/2000/svg" xmlns:xlink="http://www.w3.org/1999/xlink">
<g id="graph0" class="graph" transform="scale(1 1) rotate(0) translate(21.6 1473.35)">
<title>G</title>
<polygon fill="#111111" stroke="none" points="-21.6,21.6 -21.6,-1473.35 419.1,-1473.35 419.1,21.6 -21.6,21.6"/>
<!-- Analytics.ts -->
<g id="node1" class="node">
<title>Analytics.ts</title>
<path fill="none" stroke="#ff6c60" d="M76.33,-737.75C76.33,-737.75 7.92,-737.75 7.92,-737.75 3.96,-737.75 0,-733.79 0,-729.83 0,-729.83 0,-721.92 0,-721.92 0,-717.96 3.96,-714 7.92,-714 7.92,-714 76.33,-714 76.33,-714 80.29,-714 84.25,-717.96 84.25,-721.92 84.25,-721.92 84.25,-729.83 84.25,-729.83 84.25,-733.79 80.29,-737.75 76.33,-737.75"/>
<text text-anchor="middle" x="42.12" y="-720.45" font-family="Arial" font-size="14.00" fill="#ff6c60">Analytics.ts</text>
</g>
<!-- internal.ts -->
<g id="node2" class="node">
<title>internal.ts</title>
<path fill="none" stroke="#ff6c60" d="M186.83,-737.75C186.83,-737.75 128.17,-737.75 128.17,-737.75 124.21,-737.75 120.25,-733.79 120.25,-729.83 120.25,-729.83 120.25,-721.92 120.25,-721.92 120.25,-717.96 124.21,-714 128.17,-714 128.17,-714 186.83,-714 186.83,-714 190.79,-714 194.75,-717.96 194.75,-721.92 194.75,-721.92 194.75,-729.83 194.75,-729.83 194.75,-733.79 190.79,-737.75 186.83,-737.75"/>
<text text-anchor="middle" x="157.5" y="-720.45" font-family="Arial" font-size="14.00" fill="#ff6c60">internal.ts</text>
</g>
<!-- Analytics.ts&#45;&gt;internal.ts -->
<g id="edge1" class="edge">
<title>Analytics.ts&#45;&gt;internal.ts</title>
<path fill="none" stroke="#757575" d="M84.7,-719.34C92.43,-719.12 100.56,-719.07 108.46,-719.2"/>
<polygon fill="#757575" stroke="#757575" points="108.19,-722.69 118.29,-719.47 108.39,-715.69 108.19,-722.69"/>
</g>
<!-- internal.ts&#45;&gt;Analytics.ts -->
<g id="edge35" class="edge">
<title>internal.ts&#45;&gt;Analytics.ts</title>
<path fill="none" stroke="#757575" d="M119.8,-732.24C112.19,-732.54 104.02,-732.67 95.96,-732.61"/>
<polygon fill="#757575" stroke="#757575" points="96.27,-729.12 86.21,-732.43 96.15,-736.12 96.27,-729.12"/>
</g>
<!-- AnonymousUtils.ts -->
<g id="node3" class="node">
<title>AnonymousUtils.ts</title>
<path fill="none" stroke="#ff6c60" d="M370.46,-1451.75C370.46,-1451.75 257.79,-1451.75 257.79,-1451.75 253.83,-1451.75 249.88,-1447.79 249.88,-1443.83 249.88,-1443.83 249.88,-1435.92 249.88,-1435.92 249.88,-1431.96 253.83,-1428 257.79,-1428 257.79,-1428 370.46,-1428 370.46,-1428 374.42,-1428 378.38,-1431.96 378.38,-1435.92 378.38,-1435.92 378.38,-1443.83 378.38,-1443.83 378.38,-1447.79 374.42,-1451.75 370.46,-1451.75"/>
<text text-anchor="middle" x="314.12" y="-1434.45" font-family="Arial" font-size="14.00" fill="#ff6c60">AnonymousUtils.ts</text>
</g>
<!-- internal.ts&#45;&gt;AnonymousUtils.ts -->
<g id="edge36" class="edge">
<title>internal.ts&#45;&gt;AnonymousUtils.ts</title>
<path fill="none" stroke="#757575" d="M159.03,-738.15C162.62,-826.22 184.69,-1356.56 230.75,-1409.88 235.99,-1415.94 242.71,-1420.38 250.06,-1423.69"/>
<polygon fill="#757575" stroke="#757575" points="248.36,-1426.79 258.96,-1427.03 250.82,-1420.24 248.36,-1426.79"/>
</g>
<!-- Cloud.ts -->
<g id="node4" class="node">
<title>Cloud.ts</title>
<path fill="none" stroke="#ff6c60" d="M338.96,-1409.75C338.96,-1409.75 289.29,-1409.75 289.29,-1409.75 285.33,-1409.75 281.38,-1405.79 281.38,-1401.83 281.38,-1401.83 281.38,-1393.92 281.38,-1393.92 281.38,-1389.96 285.33,-1386 289.29,-1386 289.29,-1386 338.96,-1386 338.96,-1386 342.92,-1386 346.88,-1389.96 346.88,-1393.92 346.88,-1393.92 346.88,-1401.83 346.88,-1401.83 346.88,-1405.79 342.92,-1409.75 338.96,-1409.75"/>
<text text-anchor="middle" x="314.12" y="-1392.45" font-family="Arial" font-size="14.00" fill="#ff6c60">Cloud.ts</text>
</g>
<!-- internal.ts&#45;&gt;Cloud.ts -->
<g id="edge37" class="edge">
<title>internal.ts&#45;&gt;Cloud.ts</title>
<path fill="none" stroke="#757575" d="M159.13,-738.08C163.24,-822.82 187.42,-1318.06 230.75,-1367.88 240.63,-1379.23 255.71,-1384.87 270.29,-1388.12"/>
<polygon fill="#757575" stroke="#757575" points="269.27,-1391.49 279.75,-1389.91 270.57,-1384.61 269.27,-1391.49"/>
</g>
<!-- EventuallyQueue.ts -->
<g id="node5" class="node">
<title>EventuallyQueue.ts</title>
<path fill="none" stroke="#ff6c60" d="M373.08,-1367.75C373.08,-1367.75 255.17,-1367.75 255.17,-1367.75 251.21,-1367.75 247.25,-1363.79 247.25,-1359.83 247.25,-1359.83 247.25,-1351.92 247.25,-1351.92 247.25,-1347.96 251.21,-1344 255.17,-1344 255.17,-1344 373.08,-1344 373.08,-1344 377.04,-1344 381,-1347.96 381,-1351.92 381,-1351.92 381,-1359.83 381,-1359.83 381,-1363.79 377.04,-1367.75 373.08,-1367.75"/>
<text text-anchor="middle" x="314.12" y="-1350.45" font-family="Arial" font-size="14.00" fill="#ff6c60">EventuallyQueue.ts</text>
</g>
<!-- internal.ts&#45;&gt;EventuallyQueue.ts -->
<g id="edge38" class="edge">
<title>internal.ts&#45;&gt;EventuallyQueue.ts</title>
<path fill="none" stroke="#757575" d="M159.26,-738.19C163.95,-819.99 190.18,-1279.58 230.75,-1325.88 236.04,-1331.91 242.8,-1336.33 250.16,-1339.63"/>
<polygon fill="#757575" stroke="#757575" points="248.88,-1342.89 259.47,-1343.08 251.31,-1336.33 248.88,-1342.89"/>
</g>
<!-- FacebookUtils.ts -->
<g id="node6" class="node">
<title>FacebookUtils.ts</title>
<path fill="none" stroke="#ff6c60" d="M364.08,-1325.75C364.08,-1325.75 264.17,-1325.75 264.17,-1325.75 260.21,-1325.75 256.25,-1321.79 256.25,-1317.83 256.25,-1317.83 256.25,-1309.92 256.25,-1309.92 256.25,-1305.96 260.21,-1302 264.17,-1302 264.17,-1302 364.08,-1302 364.08,-1302 368.04,-1302 372,-1305.96 372,-1309.92 372,-1309.92 372,-1317.83 372,-1317.83 372,-1321.79 368.04,-1325.75 364.08,-1325.75"/>
<text text-anchor="middle" x="314.12" y="-1308.45" font-family="Arial" font-size="14.00" fill="#ff6c60">FacebookUtils.ts</text>
</g>
<!-- internal.ts&#45;&gt;FacebookUtils.ts -->
<g id="edge39" class="edge">
<title>internal.ts&#45;&gt;FacebookUtils.ts</title>
<path fill="none" stroke="#757575" d="M158.23,-738.07C157.06,-812.21 155.49,-1198.75 230.75,-1283.88 236.07,-1289.89 242.84,-1294.29 250.21,-1297.59"/>
<polygon fill="#757575" stroke="#757575" points="248.93,-1300.85 259.53,-1301.04 251.36,-1294.28 248.93,-1300.85"/>
</g>
<!-- InstallationController.ts -->
<g id="node7" class="node">
<title>InstallationController.ts</title>
<path fill="none" stroke="#ff6c60" d="M382.46,-1283.75C382.46,-1283.75 245.79,-1283.75 245.79,-1283.75 241.83,-1283.75 237.88,-1279.79 237.88,-1275.83 237.88,-1275.83 237.88,-1267.92 237.88,-1267.92 237.88,-1263.96 241.83,-1260 245.79,-1260 245.79,-1260 382.46,-1260 382.46,-1260 386.42,-1260 390.38,-1263.96 390.38,-1267.92 390.38,-1267.92 390.38,-1275.83 390.38,-1275.83 390.38,-1279.79 386.42,-1283.75 382.46,-1283.75"/>
<text text-anchor="middle" x="314.12" y="-1266.45" font-family="Arial" font-size="14.00" fill="#ff6c60">InstallationController.ts</text>
</g>
<!-- internal.ts&#45;&gt;InstallationController.ts -->
<g id="edge40" class="edge">
<title>internal.ts&#45;&gt;InstallationController.ts</title>
<path fill="none" stroke="#757575" d="M158.4,-737.89C158.16,-808.33 160.89,-1163.65 230.75,-1241.88 236.1,-1247.86 242.89,-1252.25 250.27,-1255.54"/>
<polygon fill="#757575" stroke="#757575" points="248.99,-1258.8 259.59,-1258.98 251.42,-1252.23 248.99,-1258.8"/>
</g>
<!-- LiveQueryClient.ts -->
<g id="node8" class="node">
<title>LiveQueryClient.ts</title>
<path fill="none" stroke="#ff6c60" d="M369.71,-1241.75C369.71,-1241.75 258.54,-1241.75 258.54,-1241.75 254.58,-1241.75 250.62,-1237.79 250.62,-1233.83 250.62,-1233.83 250.62,-1225.92 250.62,-1225.92 250.62,-1221.96 254.58,-1218 258.54,-1218 258.54,-1218 369.71,-1218 369.71,-1218 373.67,-1218 377.62,-1221.96 377.62,-1225.92 377.62,-1225.92 377.62,-1233.83 377.62,-1233.83 377.62,-1237.79 373.67,-1241.75 369.71,-1241.75"/>
<text text-anchor="middle" x="314.12" y="-1224.45" font-family="Arial" font-size="14.00" fill="#ff6c60">LiveQueryClient.ts</text>
</g>
<!-- internal.ts&#45;&gt;LiveQueryClient.ts -->
<g id="edge41" class="edge">
<title>internal.ts&#45;&gt;LiveQueryClient.ts</title>
<path fill="none" stroke="#757575" d="M158.59,-738.03C159.35,-805.36 166.37,-1128.63 230.75,-1199.88 236.26,-1205.97 243.27,-1210.41 250.87,-1213.72"/>
<polygon fill="#757575" stroke="#757575" points="249.49,-1216.94 260.08,-1217.06 251.88,-1210.36 249.49,-1216.94"/>
</g>
<!-- LiveQuerySubscription.ts -->
<g id="node9" class="node">
<title>LiveQuerySubscription.ts</title>
<path fill="none" stroke="#ff6c60" d="M389.58,-1199.75C389.58,-1199.75 238.67,-1199.75 238.67,-1199.75 234.71,-1199.75 230.75,-1195.79 230.75,-1191.83 230.75,-1191.83 230.75,-1183.92 230.75,-1183.92 230.75,-1179.96 234.71,-1176 238.67,-1176 238.67,-1176 389.58,-1176 389.58,-1176 393.54,-1176 397.5,-1179.96 397.5,-1183.92 397.5,-1183.92 397.5,-1191.83 397.5,-1191.83 397.5,-1195.79 393.54,-1199.75 389.58,-1199.75"/>
<text text-anchor="middle" x="314.12" y="-1182.45" font-family="Arial" font-size="14.00" fill="#ff6c60">LiveQuerySubscription.ts</text>
</g>
<!-- internal.ts&#45;&gt;LiveQuerySubscription.ts -->
<g id="edge42" class="edge">
<title>internal.ts&#45;&gt;LiveQuerySubscription.ts</title>
<path fill="none" stroke="#757575" d="M158.83,-737.99C160.66,-801.63 171.78,-1093.53 230.75,-1157.88 236.37,-1164.01 243.51,-1168.46 251.23,-1171.77"/>
<polygon fill="#757575" stroke="#757575" points="250,-1175.05 260.6,-1175.11 252.36,-1168.45 250,-1175.05"/>
</g>
<!-- LocalDatastore.ts -->
<g id="node10" class="node">
<title>LocalDatastore.ts</title>
<path fill="none" stroke="#ff6c60" d="M366.71,-1157.75C366.71,-1157.75 261.54,-1157.75 261.54,-1157.75 257.58,-1157.75 253.62,-1153.79 253.62,-1149.83 253.62,-1149.83 253.62,-1141.92 253.62,-1141.92 253.62,-1137.96 257.58,-1134 261.54,-1134 261.54,-1134 366.71,-1134 366.71,-1134 370.67,-1134 374.62,-1137.96 374.62,-1141.92 374.62,-1141.92 374.62,-1149.83 374.62,-1149.83 374.62,-1153.79 370.67,-1157.75 366.71,-1157.75"/>
<text text-anchor="middle" x="314.12" y="-1140.45" font-family="Arial" font-size="14.00" fill="#ff6c60">LocalDatastore.ts</text>
</g>
<!-- internal.ts&#45;&gt;LocalDatastore.ts -->
<g id="edge43" class="edge">
<title>internal.ts&#45;&gt;LocalDatastore.ts</title>
<path fill="none" stroke="#757575" d="M159.12,-738.14C162.13,-798.31 177.24,-1058.45 230.75,-1115.88 236.42,-1121.96 243.59,-1126.39 251.32,-1129.68"/>
<polygon fill="#757575" stroke="#757575" points="250.1,-1132.96 260.7,-1133.02 252.45,-1126.37 250.1,-1132.96"/>
</g>
<!-- ObjectStateMutations.ts -->
<g id="node11" class="node">
<title>ObjectStateMutations.ts</title>
<path fill="none" stroke="#ff6c60" d="M386.58,-1115.75C386.58,-1115.75 241.67,-1115.75 241.67,-1115.75 237.71,-1115.75 233.75,-1111.79 233.75,-1107.83 233.75,-1107.83 233.75,-1099.92 233.75,-1099.92 233.75,-1095.96 237.71,-1092 241.67,-1092 241.67,-1092 386.58,-1092 386.58,-1092 390.54,-1092 394.5,-1095.96 394.5,-1099.92 394.5,-1099.92 394.5,-1107.83 394.5,-1107.83 394.5,-1111.79 390.54,-1115.75 386.58,-1115.75"/>
<text text-anchor="middle" x="314.12" y="-1098.45" font-family="Arial" font-size="14.00" fill="#ff6c60">ObjectStateMutations.ts</text>
</g>
<!-- internal.ts&#45;&gt;ObjectStateMutations.ts -->
<g id="edge44" class="edge">
<title>internal.ts&#45;&gt;ObjectStateMutations.ts</title>
<path fill="none" stroke="#757575" d="M159.48,-738.02C163.74,-793.98 182.59,-1023.25 230.75,-1073.88 236.62,-1080.05 244.03,-1084.5 251.99,-1087.81"/>
<polygon fill="#757575" stroke="#757575" points="250.66,-1091.05 261.25,-1091.03 252.96,-1084.44 250.66,-1091.05"/>
</g>
<!-- OfflineQuery.ts -->
<g id="node12" class="node">
<title>OfflineQuery.ts</title>
<path fill="none" stroke="#ff6c60" d="M359.58,-1073.75C359.58,-1073.75 268.67,-1073.75 268.67,-1073.75 264.71,-1073.75 260.75,-1069.79 260.75,-1065.83 260.75,-1065.83 260.75,-1057.92 260.75,-1057.92 260.75,-1053.96 264.71,-1050 268.67,-1050 268.67,-1050 359.58,-1050 359.58,-1050 363.54,-1050 367.5,-1053.96 367.5,-1057.92 367.5,-1057.92 367.5,-1065.83 367.5,-1065.83 367.5,-1069.79 363.54,-1073.75 359.58,-1073.75"/>
<text text-anchor="middle" x="314.12" y="-1056.45" font-family="Arial" font-size="14.00" fill="#ff6c60">OfflineQuery.ts</text>
</g>
<!-- internal.ts&#45;&gt;OfflineQuery.ts -->
<g id="edge45" class="edge">
<title>internal.ts&#45;&gt;OfflineQuery.ts</title>
<path fill="none" stroke="#757575" d="M159.94,-737.94C165.57,-789.55 187.93,-988.01 230.75,-1031.88 236.77,-1038.04 244.33,-1042.49 252.42,-1045.79"/>
<polygon fill="#757575" stroke="#757575" points="251.24,-1049.08 261.83,-1049.02 253.51,-1042.46 251.24,-1049.08"/>
</g>
<!-- ParseACL.ts -->
<g id="node13" class="node">
<title>ParseACL.ts</title>
<path fill="none" stroke="#ff6c60" d="M352.08,-1031.75C352.08,-1031.75 276.17,-1031.75 276.17,-1031.75 272.21,-1031.75 268.25,-1027.79 268.25,-1023.83 268.25,-1023.83 268.25,-1015.92 268.25,-1015.92 268.25,-1011.96 272.21,-1008 276.17,-1008 276.17,-1008 352.08,-1008 352.08,-1008 356.04,-1008 360,-1011.96 360,-1015.92 360,-1015.92 360,-1023.83 360,-1023.83 360,-1027.79 356.04,-1031.75 352.08,-1031.75"/>
<text text-anchor="middle" x="314.12" y="-1014.45" font-family="Arial" font-size="14.00" fill="#ff6c60">ParseACL.ts</text>
</g>
<!-- internal.ts&#45;&gt;ParseACL.ts -->
<g id="edge46" class="edge">
<title>internal.ts&#45;&gt;ParseACL.ts</title>
<path fill="none" stroke="#757575" d="M160.59,-738.12C167.8,-785.43 193.31,-952.78 230.75,-989.88 237.91,-996.97 247.11,-1001.77 256.76,-1005.18"/>
<polygon fill="#757575" stroke="#757575" points="255.72,-1008.52 266.3,-1008.03 257.73,-1001.81 255.72,-1008.52"/>
</g>
<!-- ParseCLP.ts -->
<g id="node14" class="node">
<title>ParseCLP.ts</title>
<path fill="none" stroke="#ff6c60" d="M351.33,-989.75C351.33,-989.75 276.92,-989.75 276.92,-989.75 272.96,-989.75 269,-985.79 269,-981.83 269,-981.83 269,-973.92 269,-973.92 269,-969.96 272.96,-966 276.92,-966 276.92,-966 351.33,-966 351.33,-966 355.29,-966 359.25,-969.96 359.25,-973.92 359.25,-973.92 359.25,-981.83 359.25,-981.83 359.25,-985.79 355.29,-989.75 351.33,-989.75"/>
<text text-anchor="middle" x="314.12" y="-972.45" font-family="Arial" font-size="14.00" fill="#ff6c60">ParseCLP.ts</text>
</g>
<!-- internal.ts&#45;&gt;ParseCLP.ts -->
<g id="edge47" class="edge">
<title>internal.ts&#45;&gt;ParseCLP.ts</title>
<path fill="none" stroke="#757575" d="M158.51,-738.02C159.47,-775.59 168.08,-888.47 230.75,-947.88 238.3,-955.03 247.94,-959.84 257.95,-963.24"/>
<polygon fill="#757575" stroke="#757575" points="256.83,-966.56 267.41,-965.99 258.79,-959.84 256.83,-966.56"/>
</g>
<!-- ParseConfig.ts -->
<g id="node15" class="node">
<title>ParseConfig.ts</title>
<path fill="none" stroke="#ff6c60" d="M358.46,-947.75C358.46,-947.75 269.79,-947.75 269.79,-947.75 265.83,-947.75 261.88,-943.79 261.88,-939.83 261.88,-939.83 261.88,-931.92 261.88,-931.92 261.88,-927.96 265.83,-924 269.79,-924 269.79,-924 358.46,-924 358.46,-924 362.42,-924 366.38,-927.96 366.38,-931.92 366.38,-931.92 366.38,-939.83 366.38,-939.83 366.38,-943.79 362.42,-947.75 358.46,-947.75"/>
<text text-anchor="middle" x="314.12" y="-930.45" font-family="Arial" font-size="14.00" fill="#ff6c60">ParseConfig.ts</text>
</g>
<!-- internal.ts&#45;&gt;ParseConfig.ts -->
<g id="edge48" class="edge">
<title>internal.ts&#45;&gt;ParseConfig.ts</title>
<path fill="none" stroke="#757575" d="M159.89,-738.12C163.85,-770.96 178.55,-859.38 230.75,-905.88 238.12,-912.44 247.25,-917 256.73,-920.33"/>
<polygon fill="#757575" stroke="#757575" points="255.47,-923.6 266.05,-923.16 257.5,-916.91 255.47,-923.6"/>
</g>
<!-- ParseError.ts -->
<g id="node16" class="node">
<title>ParseError.ts</title>
<path fill="none" stroke="#ff6c60" d="M353.58,-905.75C353.58,-905.75 274.67,-905.75 274.67,-905.75 270.71,-905.75 266.75,-901.79 266.75,-897.83 266.75,-897.83 266.75,-889.92 266.75,-889.92 266.75,-885.96 270.71,-882 274.67,-882 274.67,-882 353.58,-882 353.58,-882 357.54,-882 361.5,-885.96 361.5,-889.92 361.5,-889.92 361.5,-897.83 361.5,-897.83 361.5,-901.79 357.54,-905.75 353.58,-905.75"/>
<text text-anchor="middle" x="314.12" y="-888.45" font-family="Arial" font-size="14.00" fill="#ff6c60">ParseError.ts</text>
</g>
<!-- internal.ts&#45;&gt;ParseError.ts -->
<g id="edge49" class="edge">
<title>internal.ts&#45;&gt;ParseError.ts</title>
<path fill="none" stroke="#757575" d="M162.07,-738.04C169.32,-765.34 188.8,-829.83 230.75,-863.88 238.91,-870.5 248.91,-875.06 259.09,-878.4"/>
<polygon fill="#757575" stroke="#757575" points="258.1,-881.75 268.68,-881.15 260.03,-875.02 258.1,-881.75"/>
</g>
<!-- ParseFile.ts -->
<g id="node17" class="node">
<title>ParseFile.ts</title>
<path fill="none" stroke="#ff6c60" d="M349.83,-863.75C349.83,-863.75 278.42,-863.75 278.42,-863.75 274.46,-863.75 270.5,-859.79 270.5,-855.83 270.5,-855.83 270.5,-847.92 270.5,-847.92 270.5,-843.96 274.46,-840 278.42,-840 278.42,-840 349.83,-840 349.83,-840 353.79,-840 357.75,-843.96 357.75,-847.92 357.75,-847.92 357.75,-855.83 357.75,-855.83 357.75,-859.79 353.79,-863.75 349.83,-863.75"/>
<text text-anchor="middle" x="314.12" y="-846.45" font-family="Arial" font-size="14.00" fill="#ff6c60">ParseFile.ts</text>
</g>
<!-- internal.ts&#45;&gt;ParseFile.ts -->
<g id="edge50" class="edge">
<title>internal.ts&#45;&gt;ParseFile.ts</title>
<path fill="none" stroke="#757575" d="M166.08,-737.98C176.89,-758.79 198.98,-799.73 230.75,-821.88 240.47,-828.66 252.21,-833.25 263.73,-836.64"/>
<polygon fill="#757575" stroke="#757575" points="262.61,-839.96 273.18,-839.16 264.42,-833.2 262.61,-839.96"/>
</g>
<!-- ParseInstallation.ts -->
<g id="node18" class="node">
<title>ParseInstallation.ts</title>
<path fill="none" stroke="#ff6c60" d="M371.21,-821.75C371.21,-821.75 257.04,-821.75 257.04,-821.75 253.08,-821.75 249.12,-817.79 249.12,-813.83 249.12,-813.83 249.12,-805.92 249.12,-805.92 249.12,-801.96 253.08,-798 257.04,-798 257.04,-798 371.21,-798 371.21,-798 375.17,-798 379.12,-801.96 379.12,-805.92 379.12,-805.92 379.12,-813.83 379.12,-813.83 379.12,-817.79 375.17,-821.75 371.21,-821.75"/>
<text text-anchor="middle" x="314.12" y="-804.45" font-family="Arial" font-size="14.00" fill="#ff6c60">ParseInstallation.ts</text>
</g>
<!-- internal.ts&#45;&gt;ParseInstallation.ts -->
<g id="edge51" class="edge">
<title>internal.ts&#45;&gt;ParseInstallation.ts</title>
<path fill="none" stroke="#757575" d="M176.27,-738.23C189.88,-750.71 209.83,-768.89 230.75,-779.88 243.31,-786.47 258.04,-791.07 271.55,-794.72"/>
<polygon fill="#757575" stroke="#757575" points="270.52,-798.07 281.08,-797.21 272.28,-791.29 270.52,-798.07"/>
</g>
<!-- ParseLiveQuery.ts -->
<g id="node19" class="node">
<title>ParseLiveQuery.ts</title>
<path fill="none" stroke="#ff6c60" d="M369.71,-779.75C369.71,-779.75 258.54,-779.75 258.54,-779.75 254.58,-779.75 250.62,-775.79 250.62,-771.83 250.62,-771.83 250.62,-763.92 250.62,-763.92 250.62,-759.96 254.58,-756 258.54,-756 258.54,-756 369.71,-756 369.71,-756 373.67,-756 377.62,-759.96 377.62,-763.92 377.62,-763.92 377.62,-771.83 377.62,-771.83 377.62,-775.79 373.67,-779.75 369.71,-779.75"/>
<text text-anchor="middle" x="314.12" y="-762.45" font-family="Arial" font-size="14.00" fill="#ff6c60">ParseLiveQuery.ts</text>
</g>
<!-- internal.ts&#45;&gt;ParseLiveQuery.ts -->
<g id="edge52" class="edge">
<title>internal.ts&#45;&gt;ParseLiveQuery.ts</title>
<path fill="none" stroke="#757575" d="M195.19,-728.21C206.56,-731.11 219.16,-734.71 230.75,-737.88 247.59,-742.47 266.46,-747.3 281.88,-752.06"/>
<polygon fill="#757575" stroke="#757575" points="280.39,-755.25 290.99,-755.03 282.57,-748.6 280.39,-755.25"/>
</g>
<!-- ParseObject.ts -->
<g id="node20" class="node">
<title>ParseObject.ts</title>
<path fill="none" stroke="#ff6c60" d="M358.83,-737.75C358.83,-737.75 269.42,-737.75 269.42,-737.75 265.46,-737.75 261.5,-733.79 261.5,-729.83 261.5,-729.83 261.5,-721.92 261.5,-721.92 261.5,-717.96 265.46,-714 269.42,-714 269.42,-714 358.83,-714 358.83,-714 362.79,-714 366.75,-717.96 366.75,-721.92 366.75,-721.92 366.75,-729.83 366.75,-729.83 366.75,-733.79 362.79,-737.75 358.83,-737.75"/>
<text text-anchor="middle" x="314.12" y="-720.45" font-family="Arial" font-size="14.00" fill="#ff6c60">ParseObject.ts</text>
</g>
<!-- internal.ts&#45;&gt;ParseObject.ts -->
<g id="edge53" class="edge">
<title>internal.ts&#45;&gt;ParseObject.ts</title>
<path fill="none" stroke="#757575" d="M195.14,-720.04C211.49,-719.23 231.22,-718.96 249.84,-719.22"/>
<polygon fill="#757575" stroke="#757575" points="249.66,-722.72 259.73,-719.43 249.8,-715.72 249.66,-722.72"/>
</g>
<!-- ParseOp.ts -->
<g id="node21" class="node">
<title>ParseOp.ts</title>
<path fill="none" stroke="#ff6c60" d="M348.33,-695.75C348.33,-695.75 279.92,-695.75 279.92,-695.75 275.96,-695.75 272,-691.79 272,-687.83 272,-687.83 272,-679.92 272,-679.92 272,-675.96 275.96,-672 279.92,-672 279.92,-672 348.33,-672 348.33,-672 352.29,-672 356.25,-675.96 356.25,-679.92 356.25,-679.92 356.25,-687.83 356.25,-687.83 356.25,-691.79 352.29,-695.75 348.33,-695.75"/>
<text text-anchor="middle" x="314.12" y="-678.45" font-family="Arial" font-size="14.00" fill="#ff6c60">ParseOp.ts</text>
</g>
<!-- internal.ts&#45;&gt;ParseOp.ts -->
<g id="edge54" class="edge">
<title>internal.ts&#45;&gt;ParseOp.ts</title>
<path fill="none" stroke="#757575" d="M175.68,-713.52C190.29,-707.35 211.85,-701.03 230.75,-695.88 240.37,-693.25 250.65,-690.55 260.57,-688.16"/>
<polygon fill="#757575" stroke="#757575" points="261.14,-691.62 270.1,-685.96 259.56,-684.8 261.14,-691.62"/>
</g>
<!-- ParsePolygon.ts -->
<g id="node22" class="node">
<title>ParsePolygon.ts</title>
<path fill="none" stroke="#ff6c60" d="M363.33,-653.75C363.33,-653.75 264.92,-653.75 264.92,-653.75 260.96,-653.75 257,-649.79 257,-645.83 257,-645.83 257,-637.92 257,-637.92 257,-633.96 260.96,-630 264.92,-630 264.92,-630 363.33,-630 363.33,-630 367.29,-630 371.25,-633.96 371.25,-637.92 371.25,-637.92 371.25,-645.83 371.25,-645.83 371.25,-649.79 367.29,-653.75 363.33,-653.75"/>
<text text-anchor="middle" x="314.12" y="-636.45" font-family="Arial" font-size="14.00" fill="#ff6c60">ParsePolygon.ts</text>
</g>
<!-- internal.ts&#45;&gt;ParsePolygon.ts -->
<g id="edge55" class="edge">
<title>internal.ts&#45;&gt;ParsePolygon.ts</title>
<path fill="none" stroke="#757575" d="M164.48,-713.61C175.96,-696.74 202.46,-668.73 230.75,-653.88 235.56,-651.35 240.69,-649.12 245.95,-647.17"/>
<polygon fill="#757575" stroke="#757575" points="247.02,-650.5 255.43,-644.05 244.83,-643.85 247.02,-650.5"/>
</g>
<!-- ParseQuery.ts -->
<g id="node23" class="node">
<title>ParseQuery.ts</title>
<path fill="none" stroke="#ff6c60" d="M357.33,-611.75C357.33,-611.75 270.92,-611.75 270.92,-611.75 266.96,-611.75 263,-607.79 263,-603.83 263,-603.83 263,-595.92 263,-595.92 263,-591.96 266.96,-588 270.92,-588 270.92,-588 357.33,-588 357.33,-588 361.29,-588 365.25,-591.96 365.25,-595.92 365.25,-595.92 365.25,-603.83 365.25,-603.83 365.25,-607.79 361.29,-611.75 357.33,-611.75"/>
<text text-anchor="middle" x="314.12" y="-594.45" font-family="Arial" font-size="14.00" fill="#ff6c60">ParseQuery.ts</text>
</g>
<!-- internal.ts&#45;&gt;ParseQuery.ts -->
<g id="edge56" class="edge">
<title>internal.ts&#45;&gt;ParseQuery.ts</title>
<path fill="none" stroke="#757575" d="M161.53,-713.74C169.59,-689.54 193.54,-637.82 230.75,-611.88 237.09,-607.45 244.29,-603.96 251.73,-601.28"/>
<polygon fill="#757575" stroke="#757575" points="252.74,-604.63 261.28,-598.36 250.69,-597.94 252.74,-604.63"/>
</g>
<!-- ParseRelation.ts -->
<g id="node24" class="node">
<title>ParseRelation.ts</title>
<path fill="none" stroke="#ff6c60" d="M363.71,-569.75C363.71,-569.75 264.54,-569.75 264.54,-569.75 260.58,-569.75 256.62,-565.79 256.62,-561.83 256.62,-561.83 256.62,-553.92 256.62,-553.92 256.62,-549.96 260.58,-546 264.54,-546 264.54,-546 363.71,-546 363.71,-546 367.67,-546 371.62,-549.96 371.62,-553.92 371.62,-553.92 371.62,-561.83 371.62,-561.83 371.62,-565.79 367.67,-569.75 363.71,-569.75"/>
<text text-anchor="middle" x="314.12" y="-552.45" font-family="Arial" font-size="14.00" fill="#ff6c60">ParseRelation.ts</text>
</g>
<!-- internal.ts&#45;&gt;ParseRelation.ts -->
<g id="edge57" class="edge">
<title>internal.ts&#45;&gt;ParseRelation.ts</title>
<path fill="none" stroke="#757575" d="M160.02,-713.82C165.11,-683.75 183.94,-607.87 230.75,-569.88 235.29,-566.19 240.4,-563.14 245.78,-560.66"/>
<polygon fill="#757575" stroke="#757575" points="246.94,-563.96 255.01,-557.1 244.42,-557.43 246.94,-563.96"/>
</g>
<!-- ParseRole.ts -->
<g id="node25" class="node">
<title>ParseRole.ts</title>
<path fill="none" stroke="#ff6c60" d="M352.83,-527.75C352.83,-527.75 275.42,-527.75 275.42,-527.75 271.46,-527.75 267.5,-523.79 267.5,-519.83 267.5,-519.83 267.5,-511.92 267.5,-511.92 267.5,-507.96 271.46,-504 275.42,-504 275.42,-504 352.83,-504 352.83,-504 356.79,-504 360.75,-507.96 360.75,-511.92 360.75,-511.92 360.75,-519.83 360.75,-519.83 360.75,-523.79 356.79,-527.75 352.83,-527.75"/>
<text text-anchor="middle" x="314.12" y="-510.45" font-family="Arial" font-size="14.00" fill="#ff6c60">ParseRole.ts</text>
</g>
<!-- internal.ts&#45;&gt;ParseRole.ts -->
<g id="edge58" class="edge">
<title>internal.ts&#45;&gt;ParseRole.ts</title>
<path fill="none" stroke="#757575" d="M159.09,-713.58C161.61,-678.2 174.09,-578.34 230.75,-527.88 237.96,-521.45 246.86,-516.94 256.12,-513.94"/>
<polygon fill="#757575" stroke="#757575" points="256.82,-517.37 265.61,-511.46 255.05,-510.6 256.82,-517.37"/>
</g>
<!-- ParseSchema.ts -->
<g id="node26" class="node">
<title>ParseSchema.ts</title>
<path fill="none" stroke="#ff6c60" d="M364.08,-485.75C364.08,-485.75 264.17,-485.75 264.17,-485.75 260.21,-485.75 256.25,-481.79 256.25,-477.83 256.25,-477.83 256.25,-469.92 256.25,-469.92 256.25,-465.96 260.21,-462 264.17,-462 264.17,-462 364.08,-462 364.08,-462 368.04,-462 372,-465.96 372,-469.92 372,-469.92 372,-477.83 372,-477.83 372,-481.79 368.04,-485.75 364.08,-485.75"/>
<text text-anchor="middle" x="314.12" y="-468.45" font-family="Arial" font-size="14.00" fill="#ff6c60">ParseSchema.ts</text>
</g>
<!-- internal.ts&#45;&gt;ParseSchema.ts -->
<g id="edge59" class="edge">
<title>internal.ts&#45;&gt;ParseSchema.ts</title>
<path fill="none" stroke="#757575" d="M158.4,-713.67C158.55,-673.79 163.81,-549.33 230.75,-485.88 235.06,-481.79 240.05,-478.47 245.39,-475.81"/>
<polygon fill="#757575" stroke="#757575" points="246.69,-479.07 254.63,-472.06 244.05,-472.58 246.69,-479.07"/>
</g>
<!-- ParseSession.ts -->
<g id="node27" class="node">
<title>ParseSession.ts</title>
<path fill="none" stroke="#ff6c60" d="M362.96,-443.75C362.96,-443.75 265.29,-443.75 265.29,-443.75 261.33,-443.75 257.38,-439.79 257.38,-435.83 257.38,-435.83 257.38,-427.92 257.38,-427.92 257.38,-423.96 261.33,-420 265.29,-420 265.29,-420 362.96,-420 362.96,-420 366.92,-420 370.88,-423.96 370.88,-427.92 370.88,-427.92 370.88,-435.83 370.88,-435.83 370.88,-439.79 366.92,-443.75 362.96,-443.75"/>
<text text-anchor="middle" x="314.12" y="-426.45" font-family="Arial" font-size="14.00" fill="#ff6c60">ParseSession.ts</text>
</g>
<!-- internal.ts&#45;&gt;ParseSession.ts -->
<g id="edge60" class="edge">
<title>internal.ts&#45;&gt;ParseSession.ts</title>
<path fill="none" stroke="#757575" d="M159.7,-713.65C165.45,-664.16 191.57,-482.7 230.75,-443.88 235.27,-439.4 240.61,-435.83 246.35,-433.04"/>
<polygon fill="#757575" stroke="#757575" points="247.63,-436.3 255.65,-429.38 245.06,-429.79 247.63,-436.3"/>
</g>
<!-- ParseUser.ts -->
<g id="node28" class="node">
<title>ParseUser.ts</title>
<path fill="none" stroke="#ff6c60" d="M352.83,-401.75C352.83,-401.75 275.42,-401.75 275.42,-401.75 271.46,-401.75 267.5,-397.79 267.5,-393.83 267.5,-393.83 267.5,-385.92 267.5,-385.92 267.5,-381.96 271.46,-378 275.42,-378 275.42,-378 352.83,-378 352.83,-378 356.79,-378 360.75,-381.96 360.75,-385.92 360.75,-385.92 360.75,-393.83 360.75,-393.83 360.75,-397.79 356.79,-401.75 352.83,-401.75"/>
<text text-anchor="middle" x="314.12" y="-384.45" font-family="Arial" font-size="14.00" fill="#ff6c60">ParseUser.ts</text>
</g>
<!-- internal.ts&#45;&gt;ParseUser.ts -->
<g id="edge61" class="edge">
<title>internal.ts&#45;&gt;ParseUser.ts</title>
<path fill="none" stroke="#757575" d="M159.36,-713.69C163.86,-659.87 186.27,-447.45 230.75,-401.88 237.72,-394.74 246.74,-389.91 256.26,-386.83"/>
<polygon fill="#757575" stroke="#757575" points="256.83,-390.29 265.66,-384.43 255.1,-383.51 256.83,-390.29"/>
</g>
<!-- Push.ts -->
<g id="node29" class="node">
<title>Push.ts</title>
<path fill="none" stroke="#ff6c60" d="M336.71,-359.75C336.71,-359.75 291.54,-359.75 291.54,-359.75 287.58,-359.75 283.62,-355.79 283.62,-351.83 283.62,-351.83 283.62,-343.92 283.62,-343.92 283.62,-339.96 287.58,-336 291.54,-336 291.54,-336 336.71,-336 336.71,-336 340.67,-336 344.62,-339.96 344.62,-343.92 344.62,-343.92 344.62,-351.83 344.62,-351.83 344.62,-355.79 340.67,-359.75 336.71,-359.75"/>
<text text-anchor="middle" x="314.12" y="-342.45" font-family="Arial" font-size="14.00" fill="#ff6c60">Push.ts</text>
</g>
<!-- internal.ts&#45;&gt;Push.ts -->
<g id="edge62" class="edge">
<title>internal.ts&#45;&gt;Push.ts</title>
<path fill="none" stroke="#757575" d="M159.1,-713.61C162.49,-655.54 180.95,-412.22 230.75,-359.88 241.45,-348.63 257.26,-343.08 272.18,-341.07"/>
<polygon fill="#757575" stroke="#757575" points="272.12,-344.58 281.81,-340.3 271.56,-337.6 272.12,-344.58"/>
</g>
<!-- RESTController.ts -->
<g id="node30" class="node">
<title>RESTController.ts</title>
<path fill="none" stroke="#ff6c60" d="M368.21,-317.75C368.21,-317.75 260.04,-317.75 260.04,-317.75 256.08,-317.75 252.12,-313.79 252.12,-309.83 252.12,-309.83 252.12,-301.92 252.12,-301.92 252.12,-297.96 256.08,-294 260.04,-294 260.04,-294 368.21,-294 368.21,-294 372.17,-294 376.12,-297.96 376.12,-301.92 376.12,-301.92 376.12,-309.83 376.12,-309.83 376.12,-313.79 372.17,-317.75 368.21,-317.75"/>
<text text-anchor="middle" x="314.12" y="-300.45" font-family="Arial" font-size="14.00" fill="#ff6c60">RESTController.ts</text>
</g>
<!-- internal.ts&#45;&gt;RESTController.ts -->
<g id="edge63" class="edge">
<title>internal.ts&#45;&gt;RESTController.ts</title>
<path fill="none" stroke="#757575" d="M158.88,-713.72C161.22,-651.97 175.56,-377.1 230.75,-317.88 234.03,-314.35 237.82,-311.39 241.92,-308.91"/>
<polygon fill="#757575" stroke="#757575" points="243.18,-312.19 250.63,-304.66 240.11,-305.9 243.18,-312.19"/>
</g>
<!-- arrayContainsObject.ts -->
<g id="node31" class="node">
<title>arrayContainsObject.ts</title>
<path fill="none" stroke="#ff6c60" d="M383.21,-275.75C383.21,-275.75 245.04,-275.75 245.04,-275.75 241.08,-275.75 237.12,-271.79 237.12,-267.83 237.12,-267.83 237.12,-259.92 237.12,-259.92 237.12,-255.96 241.08,-252 245.04,-252 245.04,-252 383.21,-252 383.21,-252 387.17,-252 391.12,-255.96 391.12,-259.92 391.12,-259.92 391.12,-267.83 391.12,-267.83 391.12,-271.79 387.17,-275.75 383.21,-275.75"/>
<text text-anchor="middle" x="314.12" y="-258.45" font-family="Arial" font-size="14.00" fill="#ff6c60">arrayContainsObject.ts</text>
</g>
<!-- internal.ts&#45;&gt;arrayContainsObject.ts -->
<g id="edge64" class="edge">
<title>internal.ts&#45;&gt;arrayContainsObject.ts</title>
<path fill="none" stroke="#757575" d="M158.7,-713.58C160.05,-650.29 169.47,-364.31 229.72,-279.16"/>
<polygon fill="#757575" stroke="#757575" points="232.41,-281.39 235.97,-271.41 226.96,-277 232.41,-281.39"/>
</g>
<!-- canBeSerialized.ts -->
<g id="node32" class="node">
<title>canBeSerialized.ts</title>
<path fill="none" stroke="#ff6c60" d="M370.08,-233.75C370.08,-233.75 258.17,-233.75 258.17,-233.75 254.21,-233.75 250.25,-229.79 250.25,-225.83 250.25,-225.83 250.25,-217.92 250.25,-217.92 250.25,-213.96 254.21,-210 258.17,-210 258.17,-210 370.08,-210 370.08,-210 374.04,-210 378,-213.96 378,-217.92 378,-217.92 378,-225.83 378,-225.83 378,-229.79 374.04,-233.75 370.08,-233.75"/>
<text text-anchor="middle" x="314.12" y="-216.45" font-family="Arial" font-size="14.00" fill="#ff6c60">canBeSerialized.ts</text>
</g>
<!-- internal.ts&#45;&gt;canBeSerialized.ts -->
<g id="edge65" class="edge">
<title>internal.ts&#45;&gt;canBeSerialized.ts</title>
<path fill="none" stroke="#757575" d="M158.55,-713.56C159.05,-644.24 164.81,-306.85 230.75,-233.88 233.45,-230.88 236.52,-228.29 239.84,-226.06"/>
<polygon fill="#757575" stroke="#757575" points="241.31,-229.24 248.44,-221.4 237.98,-223.08 241.31,-229.24"/>
</g>
<!-- decode.ts -->
<g id="node33" class="node">
<title>decode.ts</title>
<path fill="none" stroke="#ff6c60" d="M343.46,-191.75C343.46,-191.75 284.79,-191.75 284.79,-191.75 280.83,-191.75 276.88,-187.79 276.88,-183.83 276.88,-183.83 276.88,-175.92 276.88,-175.92 276.88,-171.96 280.83,-168 284.79,-168 284.79,-168 343.46,-168 343.46,-168 347.42,-168 351.38,-171.96 351.38,-175.92 351.38,-175.92 351.38,-183.83 351.38,-183.83 351.38,-187.79 347.42,-191.75 343.46,-191.75"/>
<text text-anchor="middle" x="314.12" y="-174.45" font-family="Arial" font-size="14.00" fill="#ff6c60">decode.ts</text>
</g>
<!-- internal.ts&#45;&gt;decode.ts -->
<g id="edge66" class="edge">
<title>internal.ts&#45;&gt;decode.ts</title>
<path fill="none" stroke="#757575" d="M158.42,-713.64C158.07,-641.14 159.35,-271.82 230.75,-191.88 239.57,-182 252.33,-176.47 265.17,-173.83"/>
<polygon fill="#757575" stroke="#757575" points="265.49,-177.32 274.9,-172.44 264.5,-170.39 265.49,-177.32"/>
</g>
<!-- encode.ts -->
<g id="node34" class="node">
<title>encode.ts</title>
<path fill="none" stroke="#ff6c60" d="M343.46,-149.75C343.46,-149.75 284.79,-149.75 284.79,-149.75 280.83,-149.75 276.88,-145.79 276.88,-141.83 276.88,-141.83 276.88,-133.92 276.88,-133.92 276.88,-129.96 280.83,-126 284.79,-126 284.79,-126 343.46,-126 343.46,-126 347.42,-126 351.38,-129.96 351.38,-133.92 351.38,-133.92 351.38,-141.83 351.38,-141.83 351.38,-145.79 347.42,-149.75 343.46,-149.75"/>
<text text-anchor="middle" x="314.12" y="-132.45" font-family="Arial" font-size="14.00" fill="#ff6c60">encode.ts</text>
</g>
<!-- internal.ts&#45;&gt;encode.ts -->
<g id="edge67" class="edge">
<title>internal.ts&#45;&gt;encode.ts</title>
<path fill="none" stroke="#757575" d="M158.31,-713.83C157.17,-638.56 153.85,-236.86 230.75,-149.88 239.6,-139.87 252.48,-134.31 265.44,-131.71"/>
<polygon fill="#757575" stroke="#757575" points="265.83,-135.19 275.26,-130.35 264.87,-128.25 265.83,-135.19"/>
</g>
<!-- equals.ts -->
<g id="node35" class="node">
<title>equals.ts</title>
<path fill="none" stroke="#ff6c60" d="M341.21,-107.75C341.21,-107.75 287.04,-107.75 287.04,-107.75 283.08,-107.75 279.12,-103.79 279.12,-99.83 279.12,-99.83 279.12,-91.92 279.12,-91.92 279.12,-87.96 283.08,-84 287.04,-84 287.04,-84 341.21,-84 341.21,-84 345.17,-84 349.12,-87.96 349.12,-91.92 349.12,-91.92 349.12,-99.83 349.12,-99.83 349.12,-103.79 345.17,-107.75 341.21,-107.75"/>
<text text-anchor="middle" x="314.12" y="-90.45" font-family="Arial" font-size="14.00" fill="#ff6c60">equals.ts</text>
</g>
<!-- internal.ts&#45;&gt;equals.ts -->
<g id="edge68" class="edge">
<title>internal.ts&#45;&gt;equals.ts</title>
<path fill="none" stroke="#757575" d="M159.02,-713.7C162.99,-630.8 189.43,-155.02 230.75,-107.88 240.02,-97.3 253.81,-91.68 267.46,-89.27"/>
<polygon fill="#757575" stroke="#757575" points="267.76,-92.76 277.29,-88.13 266.96,-85.81 267.76,-92.76"/>
</g>
<!-- unique.ts -->
<g id="node36" class="node">
<title>unique.ts</title>
<path fill="none" stroke="#ff6c60" d="M341.58,-65.75C341.58,-65.75 286.67,-65.75 286.67,-65.75 282.71,-65.75 278.75,-61.79 278.75,-57.83 278.75,-57.83 278.75,-49.92 278.75,-49.92 278.75,-45.96 282.71,-42 286.67,-42 286.67,-42 341.58,-42 341.58,-42 345.54,-42 349.5,-45.96 349.5,-49.92 349.5,-49.92 349.5,-57.83 349.5,-57.83 349.5,-61.79 345.54,-65.75 341.58,-65.75"/>
<text text-anchor="middle" x="314.12" y="-48.45" font-family="Arial" font-size="14.00" fill="#ff6c60">unique.ts</text>
</g>
<!-- internal.ts&#45;&gt;unique.ts -->
<g id="edge69" class="edge">
<title>internal.ts&#45;&gt;unique.ts</title>
<path fill="none" stroke="#757575" d="M158.95,-713.55C162.47,-627.04 186.72,-116.5 230.75,-65.88 239.91,-55.35 253.53,-49.73 267.08,-47.29"/>
<polygon fill="#757575" stroke="#757575" points="267.32,-50.78 276.84,-46.12 266.49,-43.83 267.32,-50.78"/>
</g>
<!-- unsavedChildren.ts -->
<g id="node37" class="node">
<title>unsavedChildren.ts</title>
<path fill="none" stroke="#ff6c60" d="M371.96,-23.75C371.96,-23.75 256.29,-23.75 256.29,-23.75 252.33,-23.75 248.38,-19.79 248.38,-15.83 248.38,-15.83 248.38,-7.92 248.38,-7.92 248.38,-3.96 252.33,0 256.29,0 256.29,0 371.96,0 371.96,0 375.92,0 379.88,-3.96 379.88,-7.92 379.88,-7.92 379.88,-15.83 379.88,-15.83 379.88,-19.79 375.92,-23.75 371.96,-23.75"/>
<text text-anchor="middle" x="314.12" y="-6.45" font-family="Arial" font-size="14.00" fill="#ff6c60">unsavedChildren.ts</text>
</g>
<!-- internal.ts&#45;&gt;unsavedChildren.ts -->
<g id="edge70" class="edge">
<title>internal.ts&#45;&gt;unsavedChildren.ts</title>
<path fill="none" stroke="#757575" d="M158.87,-713.75C161.92,-624.72 183.94,-78.05 230.75,-23.88 232.97,-21.31 235.45,-19.04 238.13,-17.03"/>
<polygon fill="#757575" stroke="#757575" points="239.82,-20.09 246.62,-11.97 236.24,-14.08 239.82,-20.09"/>
</g>
<!-- AnonymousUtils.ts&#45;&gt;internal.ts -->
<g id="edge2" class="edge">
<title>AnonymousUtils.ts&#45;&gt;internal.ts</title>
<path fill="none" stroke="#757575" d="M249.53,-1441.29C242.39,-1438.16 235.86,-1433.79 230.75,-1427.88 185.64,-1375.66 163.54,-865.89 159.28,-749.4"/>
<polygon fill="#757575" stroke="#757575" points="162.78,-749.39 158.92,-739.52 155.78,-749.63 162.78,-749.39"/>
</g>
<!-- Cloud.ts&#45;&gt;internal.ts -->
<g id="edge3" class="edge">
<title>Cloud.ts&#45;&gt;internal.ts</title>
<path fill="none" stroke="#757575" d="M281.24,-1405.94C263.74,-1405.38 243.15,-1400.13 230.75,-1385.88 188.35,-1337.13 164.3,-861.97 159.43,-749.53"/>
<polygon fill="#757575" stroke="#757575" points="162.93,-749.55 159.01,-739.71 155.94,-749.85 162.93,-749.55"/>
</g>
<!-- EventuallyQueue.ts&#45;&gt;internal.ts -->
<g id="edge4" class="edge">
<title>EventuallyQueue.ts&#45;&gt;internal.ts</title>
<path fill="none" stroke="#757575" d="M246.81,-1355.92C240.75,-1352.93 235.22,-1348.98 230.75,-1343.88 191.05,-1298.57 165.08,-857.47 159.59,-749.52"/>
<polygon fill="#757575" stroke="#757575" points="163.09,-749.38 159.1,-739.56 156.09,-749.72 163.09,-749.38"/>
</g>
<!-- FacebookUtils.ts&#45;&gt;internal.ts -->
<g id="edge5" class="edge">
<title>FacebookUtils.ts&#45;&gt;internal.ts</title>
<path fill="none" stroke="#757575" d="M255.85,-1317.53C246.33,-1314.4 237.4,-1309.39 230.75,-1301.88 157.15,-1218.63 157.03,-847.13 158.15,-749.38"/>
<polygon fill="#757575" stroke="#757575" points="161.65,-749.48 158.29,-739.43 154.65,-749.38 161.65,-749.48"/>
</g>
<!-- InstallationController.ts&#45;&gt;internal.ts -->
<g id="edge6" class="edge">
<title>InstallationController.ts&#45;&gt;internal.ts</title>
<path fill="none" stroke="#757575" d="M237.54,-1266.11C235.09,-1264.26 232.81,-1262.19 230.75,-1259.88 162.49,-1183.44 158.32,-842.51 158.39,-749.33"/>
<polygon fill="#757575" stroke="#757575" points="161.88,-749.63 158.41,-739.62 154.88,-749.61 161.88,-749.63"/>
</g>
<!-- LiveQueryClient.ts&#45;&gt;internal.ts -->
<g id="edge7" class="edge">
<title>LiveQueryClient.ts&#45;&gt;internal.ts</title>
<path fill="none" stroke="#757575" d="M250.18,-1231.24C242.85,-1228.14 236.09,-1223.79 230.75,-1217.88 167.9,-1148.32 159.72,-838.56 158.66,-749.65"/>
<polygon fill="#757575" stroke="#757575" points="162.16,-749.67 158.56,-739.71 155.16,-749.74 162.16,-749.67"/>
</g>
<!-- LiveQuerySubscription.ts&#45;&gt;internal.ts -->
<g id="edge8" class="edge">
<title>LiveQuerySubscription.ts&#45;&gt;internal.ts</title>
<path fill="none" stroke="#757575" d="M230.4,-1175.49C173.11,-1111.88 161.2,-832.97 158.97,-749.43"/>
<polygon fill="#757575" stroke="#757575" points="162.48,-749.59 158.74,-739.68 155.48,-749.76 162.48,-749.59"/>
</g>
<!-- LocalDatastore.ts&#45;&gt;internal.ts -->
<g id="edge9" class="edge">
<title>LocalDatastore.ts&#45;&gt;internal.ts</title>
<path fill="none" stroke="#757575" d="M253.24,-1148.23C244.78,-1145.1 236.89,-1140.46 230.75,-1133.88 178.47,-1077.77 162.85,-828.17 159.35,-749.51"/>
<polygon fill="#757575" stroke="#757575" points="162.85,-749.39 158.94,-739.54 155.86,-749.67 162.85,-749.39"/>
</g>
<!-- ObjectStateMutations.ts&#45;&gt;internal.ts -->
<g id="edge10" class="edge">
<title>ObjectStateMutations.ts&#45;&gt;internal.ts</title>
<path fill="none" stroke="#757575" d="M233.28,-1094.34C232.41,-1093.55 231.56,-1092.73 230.75,-1091.88 183.68,-1042.39 164.6,-822.25 159.79,-749.26"/>
<polygon fill="#757575" stroke="#757575" points="163.31,-749.41 159.19,-739.65 156.32,-749.85 163.31,-749.41"/>
</g>
<!-- OfflineQuery.ts&#45;&gt;internal.ts -->
<g id="edge11" class="edge">
<title>OfflineQuery.ts&#45;&gt;internal.ts</title>
<path fill="none" stroke="#757575" d="M260.27,-1066.11C249.3,-1063.15 238.69,-1058.01 230.75,-1049.88 188.96,-1007.06 166.66,-816.99 160.37,-749.5"/>
<polygon fill="#757575" stroke="#757575" points="163.86,-749.22 159.49,-739.56 156.89,-749.83 163.86,-749.22"/>
</g>
<!-- ParseACL.ts&#45;&gt;internal.ts -->
<g id="edge12" class="edge">
<title>ParseACL.ts&#45;&gt;internal.ts</title>
<path fill="none" stroke="#757575" d="M267.75,-1025.58C254.33,-1023.07 240.6,-1017.64 230.75,-1007.88 194.1,-971.55 168.87,-810.39 161.06,-749.24"/>
<polygon fill="#757575" stroke="#757575" points="164.57,-749.1 159.88,-739.6 157.62,-749.95 164.57,-749.1"/>
</g>
<!-- ParseCLP.ts&#45;&gt;internal.ts -->
<g id="edge13" class="edge">
<title>ParseCLP.ts&#45;&gt;internal.ts</title>
<path fill="none" stroke="#757575" d="M268.86,-983.47C255.19,-981.01 241.03,-975.62 230.75,-965.88 169.3,-907.63 159.82,-797.97 158.57,-749.52"/>
<polygon fill="#757575" stroke="#757575" points="162.07,-749.54 158.43,-739.59 155.08,-749.64 162.07,-749.54"/>
</g>
<!-- ParseConfig.ts&#45;&gt;internal.ts -->
<g id="edge14" class="edge">
<title>ParseConfig.ts&#45;&gt;internal.ts</title>
<path fill="none" stroke="#757575" d="M261.5,-939.39C250.35,-936.47 239.35,-931.53 230.75,-923.88 179.29,-878.04 164.27,-791.47 160.06,-749.46"/>
<polygon fill="#757575" stroke="#757575" points="163.57,-749.34 159.22,-739.68 156.59,-749.94 163.57,-749.34"/>
</g>
<!-- ParseError.ts&#45;&gt;internal.ts -->
<g id="edge15" class="edge">
<title>ParseError.ts&#45;&gt;internal.ts</title>
<path fill="none" stroke="#757575" d="M266.29,-897.82C253.72,-895.1 240.83,-890.06 230.75,-881.88 188.88,-847.89 169.39,-783.59 162.11,-748.88"/>
<polygon fill="#757575" stroke="#757575" points="165.61,-748.59 160.3,-739.42 158.74,-749.9 165.61,-748.59"/>
</g>
<!-- ParseFile.ts&#45;&gt;internal.ts -->
<g id="edge16" class="edge">
<title>ParseFile.ts&#45;&gt;internal.ts</title>
<path fill="none" stroke="#757575" d="M270.01,-855.46C256.56,-852.85 242.25,-847.89 230.75,-839.88 198.34,-817.28 175.99,-775.11 165.43,-748.62"/>
<polygon fill="#757575" stroke="#757575" points="168.79,-747.6 162.05,-739.43 162.22,-750.02 168.79,-747.6"/>
</g>
<!-- ParseInstallation.ts&#45;&gt;internal.ts -->
<g id="edge17" class="edge">
<title>ParseInstallation.ts&#45;&gt;internal.ts</title>
<path fill="none" stroke="#757575" d="M249.04,-805.69C242.71,-803.49 236.5,-800.89 230.75,-797.88 207.1,-785.46 184.7,-763.85 171.29,-747.24"/>
<polygon fill="#757575" stroke="#757575" points="174.18,-745.26 165.39,-739.35 168.58,-749.45 174.18,-745.26"/>
</g>
<!-- ParseLiveQuery.ts&#45;&gt;internal.ts -->
<g id="edge18" class="edge">
<title>ParseLiveQuery.ts&#45;&gt;internal.ts</title>
<path fill="none" stroke="#757575" d="M250.55,-761.11C243.86,-759.4 237.16,-757.62 230.75,-755.88 215.98,-751.85 199.59,-747.11 186.16,-742.29"/>
<polygon fill="#757575" stroke="#757575" points="187.68,-739.12 177.09,-738.78 185.16,-745.65 187.68,-739.12"/>
</g>
<!-- ParseObject.ts&#45;&gt;internal.ts -->
<g id="edge19" class="edge">
<title>ParseObject.ts&#45;&gt;internal.ts</title>
<path fill="none" stroke="#757575" d="M261.24,-732.29C243.46,-732.78 223.65,-732.73 206.22,-732.16"/>
<polygon fill="#757575" stroke="#757575" points="206.79,-728.69 196.66,-731.78 206.51,-735.68 206.79,-728.69"/>
</g>
<!-- ParseOp.ts&#45;&gt;internal.ts -->
<g id="edge20" class="edge">
<title>ParseOp.ts&#45;&gt;internal.ts</title>
<path fill="none" stroke="#757575" d="M292.42,-696.25C275.74,-702.09 251.68,-708.17 230.75,-713.88 222.78,-716.05 214.34,-718.43 206.14,-720.65"/>
<polygon fill="#757575" stroke="#757575" points="205.43,-717.22 196.65,-723.15 207.21,-723.99 205.43,-717.22"/>
</g>
<!-- ParsePolygon.ts&#45;&gt;internal.ts -->
<g id="edge21" class="edge">
<title>ParsePolygon.ts&#45;&gt;internal.ts</title>
<path fill="none" stroke="#757575" d="M282.54,-654.16C266.47,-658.26 246.82,-663.44 230.75,-671.88 213.75,-680.8 197.4,-694.48 184.56,-705.98"/>
<polygon fill="#757575" stroke="#757575" points="182.44,-703.19 177.39,-712.5 187.15,-708.36 182.44,-703.19"/>
</g>
<!-- ParseQuery.ts&#45;&gt;internal.ts -->
<g id="edge22" class="edge">
<title>ParseQuery.ts&#45;&gt;internal.ts</title>
<path fill="none" stroke="#757575" d="M274.64,-612.2C259.91,-615.79 243.58,-620.93 230.75,-629.88 203.58,-648.82 183.48,-681.52 171.47,-703.6"/>
<polygon fill="#757575" stroke="#757575" points="168.38,-701.96 166.79,-712.43 174.57,-705.23 168.38,-701.96"/>
</g>
<!-- ParseRelation.ts&#45;&gt;internal.ts -->
<g id="edge23" class="edge">
<title>ParseRelation.ts&#45;&gt;internal.ts</title>
<path fill="none" stroke="#757575" d="M270.13,-570.18C256.38,-573.65 241.87,-578.85 230.75,-587.88 193.72,-617.93 174.19,-671.71 165.14,-702.69"/>
<polygon fill="#757575" stroke="#757575" points="161.78,-701.68 162.47,-712.25 168.53,-703.56 161.78,-701.68"/>
</g>
<!-- ParseRole.ts&#45;&gt;internal.ts -->
<g id="edge24" class="edge">
<title>ParseRole.ts&#45;&gt;internal.ts</title>
<path fill="none" stroke="#757575" d="M267.5,-528.15C254.38,-531.59 240.89,-536.84 230.75,-545.88 183.75,-587.74 167.15,-663.59 161.42,-702.25"/>
<polygon fill="#757575" stroke="#757575" points="157.95,-701.75 160.09,-712.13 164.89,-702.68 157.95,-701.75"/>
</g>
<!-- ParseSchema.ts&#45;&gt;internal.ts -->
<g id="edge25" class="edge">
<title>ParseSchema.ts&#45;&gt;internal.ts</title>
<path fill="none" stroke="#757575" d="M265.44,-486.23C252.86,-489.67 240.18,-494.94 230.75,-503.88 173.46,-558.17 161.35,-657.16 158.96,-702.46"/>
<polygon fill="#757575" stroke="#757575" points="155.47,-702.09 158.57,-712.22 162.46,-702.37 155.47,-702.09"/>
</g>
<!-- ParseSession.ts&#45;&gt;internal.ts -->
<g id="edge26" class="edge">
<title>ParseSession.ts&#45;&gt;internal.ts</title>
<path fill="none" stroke="#757575" d="M264.32,-444.2C252.02,-447.64 239.77,-452.94 230.75,-461.88 195.87,-496.44 171.34,-644.04 162.32,-702.33"/>
<polygon fill="#757575" stroke="#757575" points="158.87,-701.72 160.81,-712.14 165.79,-702.78 158.87,-701.72"/>
</g>
<!-- ParseUser.ts&#45;&gt;internal.ts -->
<g id="edge27" class="edge">
<title>ParseUser.ts&#45;&gt;internal.ts</title>
<path fill="none" stroke="#757575" d="M267.13,-401.2C253.83,-404.6 240.34,-410.05 230.75,-419.88 190.61,-461 168.45,-638 161.19,-702.48"/>
<polygon fill="#757575" stroke="#757575" points="157.73,-701.98 160.11,-712.3 164.69,-702.75 157.73,-701.98"/>
</g>
<!-- Push.ts&#45;&gt;internal.ts -->
<g id="edge28" class="edge">
<title>Push.ts&#45;&gt;internal.ts</title>
<path fill="none" stroke="#757575" d="M283.32,-355.71C265.66,-358.62 244.18,-363.76 230.75,-377.88 185.32,-425.63 165.97,-632.38 160.35,-702.62"/>
<polygon fill="#757575" stroke="#757575" points="156.89,-701.98 159.6,-712.22 163.87,-702.52 156.89,-701.98"/>
</g>
<!-- RESTController.ts&#45;&gt;internal.ts -->
<g id="edge29" class="edge">
<title>RESTController.ts&#45;&gt;internal.ts</title>
<path fill="none" stroke="#757575" d="M262.13,-318.23C250.42,-321.68 239,-327.02 230.75,-335.88 180.06,-390.27 163.83,-626.57 159.7,-702.48"/>
<polygon fill="#757575" stroke="#757575" points="156.23,-701.93 159.2,-712.1 163.22,-702.29 156.23,-701.93"/>
</g>
<!-- arrayContainsObject.ts&#45;&gt;internal.ts -->
<g id="edge30" class="edge">
<title>arrayContainsObject.ts&#45;&gt;internal.ts</title>
<path fill="none" stroke="#757575" d="M262.02,-276.13C250.32,-279.59 238.93,-284.95 230.75,-293.88 174.78,-354.96 161.91,-621.06 159.18,-702.36"/>
<polygon fill="#757575" stroke="#757575" points="155.69,-702.14 158.87,-712.25 162.69,-702.36 155.69,-702.14"/>
</g>
<!-- canBeSerialized.ts&#45;&gt;internal.ts -->
<g id="edge31" class="edge">
<title>canBeSerialized.ts&#45;&gt;internal.ts</title>
<path fill="none" stroke="#757575" d="M261.51,-234.18C249.95,-237.65 238.77,-243.01 230.75,-251.88 169.45,-319.71 160.16,-616.03 158.75,-702.35"/>
<polygon fill="#757575" stroke="#757575" points="155.25,-702.16 158.61,-712.2 162.25,-702.25 155.25,-702.16"/>
</g>
<!-- decode.ts&#45;&gt;internal.ts -->
<g id="edge32" class="edge">
<title>decode.ts&#45;&gt;internal.ts</title>
<path fill="none" stroke="#757575" d="M276.39,-188.55C260.14,-191.6 242.15,-197.11 230.75,-209.88 164.09,-284.51 158.55,-611.39 158.39,-702.41"/>
<polygon fill="#757575" stroke="#757575" points="154.89,-702.35 158.4,-712.34 161.89,-702.34 154.89,-702.35"/>
</g>
<!-- encode.ts&#45;&gt;internal.ts -->
<g id="edge33" class="edge">
<title>encode.ts&#45;&gt;internal.ts</title>
<path fill="none" stroke="#757575" d="M276.76,-146.42C260.38,-149.44 242.19,-154.94 230.75,-167.88 158.73,-249.34 157.07,-606.87 158.08,-702.44"/>
<polygon fill="#757575" stroke="#757575" points="154.58,-702.22 158.21,-712.17 161.58,-702.12 154.58,-702.22"/>
</g>
<!-- equals.ts&#45;&gt;internal.ts -->
<g id="edge34" class="edge">
<title>equals.ts&#45;&gt;internal.ts</title>
<path fill="none" stroke="#757575" d="M278.8,-104.01C261.88,-106.93 242.62,-112.33 230.75,-125.88 191.76,-170.36 166.02,-596.49 159.91,-702.29"/>
<polygon fill="#757575" stroke="#757575" points="156.42,-701.87 159.34,-712.05 163.41,-702.27 156.42,-701.87"/>
</g>
<!-- unique.ts&#45;&gt;internal.ts -->
<g id="edge71" class="edge">
<title>unique.ts&#45;&gt;internal.ts</title>
<path fill="none" stroke="#757575" d="M278.34,-62.04C261.51,-64.97 242.47,-70.4 230.75,-83.88 189.07,-131.8 165.11,-591.85 159.69,-702.25"/>
<polygon fill="#757575" stroke="#757575" points="156.2,-702 159.21,-712.16 163.19,-702.34 156.2,-702"/>
</g>
<!-- unsavedChildren.ts&#45;&gt;internal.ts -->
<g id="edge72" class="edge">
<title>unsavedChildren.ts&#45;&gt;internal.ts</title>
<path fill="none" stroke="#757575" d="M260.37,-24.19C249.13,-27.68 238.37,-33.05 230.75,-41.88 186.35,-93.27 164.25,-587.82 159.49,-702.37"/>
<polygon fill="#757575" stroke="#757575" points="156.01,-701.96 159.09,-712.09 163,-702.24 156.01,-701.96"/>
</g>
</g>
</svg>
