<?xml version="1.0" encoding="UTF-8" standalone="no"?>
<!DOCTYPE svg PUBLIC "-//W3C//DTD SVG 1.1//EN"
 "http://www.w3.org/Graphics/SVG/1.1/DTD/svg11.dtd">
<!-- Generated by graphviz version 9.0.0 (20230911.1827)
 -->
<!-- Title: G Pages: 1 -->
<svg width="1814pt" height="800pt"
 viewBox="0.00 0.00 1813.95 800.16" xmlns="http://www.w3.org/2000/svg" xmlns:xlink="http://www.w3.org/1999/xlink">
<g id="graph0" class="graph" transform="scale(1 1) rotate(0) translate(21.6 778.56)">
<title>G</title>
<polygon fill="#111111" stroke="none" points="-21.6,21.6 -21.6,-778.56 1792.35,-778.56 1792.35,21.6 -21.6,21.6"/>
<!-- EventuallyQueue.ts -->
<g id="node1" class="node">
<title>EventuallyQueue.ts</title>
<path fill="none" stroke="#ff6c60" d="M125.83,-363.7C125.83,-363.7 7.92,-363.7 7.92,-363.7 3.96,-363.7 0,-359.74 0,-355.78 0,-355.78 0,-347.87 0,-347.87 0,-343.91 3.96,-339.95 7.92,-339.95 7.92,-339.95 125.83,-339.95 125.83,-339.95 129.79,-339.95 133.75,-343.91 133.75,-347.87 133.75,-347.87 133.75,-355.78 133.75,-355.78 133.75,-359.74 129.79,-363.7 125.83,-363.7"/>
<text text-anchor="middle" x="66.88" y="-346.4" font-family="Arial" font-size="14.00" fill="#ff6c60">EventuallyQueue.ts</text>
</g>
<!-- ParseObject.ts -->
<g id="node2" class="node">
<title>ParseObject.ts</title>
<path fill="none" stroke="#ff6c60" d="M267.08,-363.7C267.08,-363.7 177.67,-363.7 177.67,-363.7 173.71,-363.7 169.75,-359.74 169.75,-355.78 169.75,-355.78 169.75,-347.87 169.75,-347.87 169.75,-343.91 173.71,-339.95 177.67,-339.95 177.67,-339.95 267.08,-339.95 267.08,-339.95 271.04,-339.95 275,-343.91 275,-347.87 275,-347.87 275,-355.78 275,-355.78 275,-359.74 271.04,-363.7 267.08,-363.7"/>
<text text-anchor="middle" x="222.38" y="-346.4" font-family="Arial" font-size="14.00" fill="#ff6c60">ParseObject.ts</text>
</g>
<!-- EventuallyQueue.ts&#45;&gt;ParseObject.ts -->
<g id="edge1" class="edge">
<title>EventuallyQueue.ts&#45;&gt;ParseObject.ts</title>
<path fill="none" stroke="#757575" d="M133.86,-345.13C141.83,-345.05 149.96,-345.06 157.9,-345.17"/>
<polygon fill="#757575" stroke="#757575" points="157.76,-348.66 167.83,-345.37 157.9,-341.67 157.76,-348.66"/>
</g>
<!-- ParseQuery.ts -->
<g id="node3" class="node">
<title>ParseQuery.ts</title>
<path fill="none" stroke="#ff6c60" d="M723.83,-591.7C723.83,-591.7 637.42,-591.7 637.42,-591.7 633.46,-591.7 629.5,-587.74 629.5,-583.78 629.5,-583.78 629.5,-575.87 629.5,-575.87 629.5,-571.91 633.46,-567.95 637.42,-567.95 637.42,-567.95 723.83,-567.95 723.83,-567.95 727.79,-567.95 731.75,-571.91 731.75,-575.87 731.75,-575.87 731.75,-583.78 731.75,-583.78 731.75,-587.74 727.79,-591.7 723.83,-591.7"/>
<text text-anchor="middle" x="680.62" y="-574.4" font-family="Arial" font-size="14.00" fill="#ff6c60">ParseQuery.ts</text>
</g>
<!-- EventuallyQueue.ts&#45;&gt;ParseQuery.ts -->
<g id="edge2" class="edge">
<title>EventuallyQueue.ts&#45;&gt;ParseQuery.ts</title>
<path fill="none" stroke="#757575" d="M76.31,-364.16C104.35,-404.06 198.99,-530.38 311,-587.83 423.35,-645.44 469.95,-643.87 593.5,-617.83 612.65,-613.79 632.73,-605.21 648.68,-597.23"/>
<polygon fill="#757575" stroke="#757575" points="649.91,-600.53 657.18,-592.82 646.69,-594.32 649.91,-600.53"/>
</g>
<!-- ParseObject.ts&#45;&gt;EventuallyQueue.ts -->
<g id="edge12" class="edge">
<title>ParseObject.ts&#45;&gt;EventuallyQueue.ts</title>
<path fill="none" stroke="#757575" d="M169.34,-358.25C161.59,-358.46 153.47,-358.57 145.33,-358.58"/>
<polygon fill="#757575" stroke="#757575" points="145.4,-355.08 135.38,-358.52 145.36,-362.08 145.4,-355.08"/>
</g>
<!-- ParseObject.ts&#45;&gt;ParseQuery.ts -->
<g id="edge15" class="edge">
<title>ParseObject.ts&#45;&gt;ParseQuery.ts</title>
<path fill="none" stroke="#757575" d="M225.71,-364.15C231.9,-397.74 252.44,-488.9 311,-530.83 401.92,-595.92 539.18,-591.09 618.02,-584.07"/>
<polygon fill="#757575" stroke="#757575" points="618.08,-587.58 627.72,-583.17 617.43,-580.61 618.08,-587.58"/>
</g>
<!-- ParseOp.ts -->
<g id="node5" class="node">
<title>ParseOp.ts</title>
<path fill="none" stroke="#ff6c60" d="M1183.58,-314.7C1183.58,-314.7 1115.17,-314.7 1115.17,-314.7 1111.21,-314.7 1107.25,-310.74 1107.25,-306.78 1107.25,-306.78 1107.25,-298.87 1107.25,-298.87 1107.25,-294.91 1111.21,-290.95 1115.17,-290.95 1115.17,-290.95 1183.58,-290.95 1183.58,-290.95 1187.54,-290.95 1191.5,-294.91 1191.5,-298.87 1191.5,-298.87 1191.5,-306.78 1191.5,-306.78 1191.5,-310.74 1187.54,-314.7 1183.58,-314.7"/>
<text text-anchor="middle" x="1149.38" y="-297.4" font-family="Arial" font-size="14.00" fill="#ff6c60">ParseOp.ts</text>
</g>
<!-- ParseObject.ts&#45;&gt;ParseOp.ts -->
<g id="edge14" class="edge">
<title>ParseObject.ts&#45;&gt;ParseOp.ts</title>
<path fill="none" stroke="#757575" d="M226.2,-339.78C234.8,-311.73 263.04,-244.79 311,-214.83 396.35,-161.51 434.37,-181.83 535,-181.83 535,-181.83 535,-181.83 681.62,-181.83 850.46,-181.83 1044.4,-251.97 1117.96,-285.7"/>
<polygon fill="#757575" stroke="#757575" points="1116.41,-288.84 1126.95,-289.95 1119.4,-282.51 1116.41,-288.84"/>
</g>
<!-- ParseRelation.ts -->
<g id="node6" class="node">
<title>ParseRelation.ts</title>
<path fill="none" stroke="#ff6c60" d="M585.58,-362.7C585.58,-362.7 486.42,-362.7 486.42,-362.7 482.46,-362.7 478.5,-358.74 478.5,-354.78 478.5,-354.78 478.5,-346.87 478.5,-346.87 478.5,-342.91 482.46,-338.95 486.42,-338.95 486.42,-338.95 585.58,-338.95 585.58,-338.95 589.54,-338.95 593.5,-342.91 593.5,-346.87 593.5,-346.87 593.5,-354.78 593.5,-354.78 593.5,-358.74 589.54,-362.7 585.58,-362.7"/>
<text text-anchor="middle" x="536" y="-345.4" font-family="Arial" font-size="14.00" fill="#ff6c60">ParseRelation.ts</text>
</g>
<!-- ParseObject.ts&#45;&gt;ParseRelation.ts -->
<g id="edge16" class="edge">
<title>ParseObject.ts&#45;&gt;ParseRelation.ts</title>
<path fill="none" stroke="#757575" d="M240.94,-339.48C258.48,-332.14 286.3,-324.74 311,-321.83 369.04,-314.97 384.39,-315.61 442.5,-321.83 463.64,-324.08 487.04,-329.17 505.02,-334.81"/>
<polygon fill="#757575" stroke="#757575" points="503.68,-338.05 514.27,-337.98 505.95,-331.43 503.68,-338.05"/>
</g>
<!-- encode.ts -->
<g id="node7" class="node">
<title>encode.ts</title>
<path fill="none" stroke="#ff6c60" d="M1294.08,-522.7C1294.08,-522.7 1235.42,-522.7 1235.42,-522.7 1231.46,-522.7 1227.5,-518.74 1227.5,-514.78 1227.5,-514.78 1227.5,-506.87 1227.5,-506.87 1227.5,-502.91 1231.46,-498.95 1235.42,-498.95 1235.42,-498.95 1294.08,-498.95 1294.08,-498.95 1298.04,-498.95 1302,-502.91 1302,-506.87 1302,-506.87 1302,-514.78 1302,-514.78 1302,-518.74 1298.04,-522.7 1294.08,-522.7"/>
<text text-anchor="middle" x="1264.75" y="-505.4" font-family="Arial" font-size="14.00" fill="#ff6c60">encode.ts</text>
</g>
<!-- ParseObject.ts&#45;&gt;encode.ts -->
<g id="edge19" class="edge">
<title>ParseObject.ts&#45;&gt;encode.ts</title>
<path fill="none" stroke="#757575" d="M231.77,-364.15C242.44,-385.28 261.15,-428.23 275,-465.83 293.22,-515.29 271.43,-544 311,-578.83 386.98,-645.69 433.79,-619.83 535,-619.83 535,-619.83 535,-619.83 991.88,-619.83 1085.26,-619.83 1182.89,-560.51 1231.8,-529.2"/>
<polygon fill="#757575" stroke="#757575" points="1233.41,-532.33 1239.93,-523.97 1229.62,-526.44 1233.41,-532.33"/>
</g>
<!-- decode.ts -->
<g id="node9" class="node">
<title>decode.ts</title>
<path fill="none" stroke="#ff6c60" d="M1294.08,-314.7C1294.08,-314.7 1235.42,-314.7 1235.42,-314.7 1231.46,-314.7 1227.5,-310.74 1227.5,-306.78 1227.5,-306.78 1227.5,-298.87 1227.5,-298.87 1227.5,-294.91 1231.46,-290.95 1235.42,-290.95 1235.42,-290.95 1294.08,-290.95 1294.08,-290.95 1298.04,-290.95 1302,-294.91 1302,-298.87 1302,-298.87 1302,-306.78 1302,-306.78 1302,-310.74 1298.04,-314.7 1294.08,-314.7"/>
<text text-anchor="middle" x="1264.75" y="-297.4" font-family="Arial" font-size="14.00" fill="#ff6c60">decode.ts</text>
</g>
<!-- ParseObject.ts&#45;&gt;decode.ts -->
<g id="edge18" class="edge">
<title>ParseObject.ts&#45;&gt;decode.ts</title>
<path fill="none" stroke="#757575" d="M237.4,-339.49C280.32,-309.49 414.25,-237.83 535,-237.83 535,-237.83 535,-237.83 681.62,-237.83 908.77,-237.83 967.85,-233.12 1191.5,-272.83 1207.28,-275.63 1224.52,-280.56 1238.2,-285.94"/>
<polygon fill="#757575" stroke="#757575" points="1236.8,-289.14 1247.36,-289.91 1239.58,-282.72 1236.8,-289.14"/>
</g>
<!-- ParseACL.ts -->
<g id="node11" class="node">
<title>ParseACL.ts</title>
<path fill="none" stroke="#ff6c60" d="M1452.96,-482.7C1452.96,-482.7 1377.04,-482.7 1377.04,-482.7 1373.08,-482.7 1369.12,-478.74 1369.12,-474.78 1369.12,-474.78 1369.12,-466.87 1369.12,-466.87 1369.12,-462.91 1373.08,-458.95 1377.04,-458.95 1377.04,-458.95 1452.96,-458.95 1452.96,-458.95 1456.92,-458.95 1460.88,-462.91 1460.88,-466.87 1460.88,-466.87 1460.88,-474.78 1460.88,-474.78 1460.88,-478.74 1456.92,-482.7 1452.96,-482.7"/>
<text text-anchor="middle" x="1415" y="-465.4" font-family="Arial" font-size="14.00" fill="#ff6c60">ParseACL.ts</text>
</g>
<!-- ParseObject.ts&#45;&gt;ParseACL.ts -->
<g id="edge13" class="edge">
<title>ParseObject.ts&#45;&gt;ParseACL.ts</title>
<path fill="none" stroke="#757575" d="M229.39,-364.13C239.87,-385.96 261.65,-433.14 275,-474.83 297.1,-543.83 258.82,-583.56 311,-633.83 383.95,-704.1 433.71,-675.83 535,-675.83 535,-675.83 535,-675.83 1150.38,-675.83 1268.87,-675.83 1366.19,-545.17 1400.62,-492.47"/>
<polygon fill="#757575" stroke="#757575" points="1403.4,-494.62 1405.84,-484.31 1397.5,-490.85 1403.4,-494.62"/>
</g>
<!-- canBeSerialized.ts -->
<g id="node14" class="node">
<title>canBeSerialized.ts</title>
<path fill="none" stroke="#ff6c60" d="M432.71,-405.7C432.71,-405.7 320.79,-405.7 320.79,-405.7 316.83,-405.7 312.88,-401.74 312.88,-397.78 312.88,-397.78 312.88,-389.87 312.88,-389.87 312.88,-385.91 316.83,-381.95 320.79,-381.95 320.79,-381.95 432.71,-381.95 432.71,-381.95 436.67,-381.95 440.62,-385.91 440.62,-389.87 440.62,-389.87 440.62,-397.78 440.62,-397.78 440.62,-401.74 436.67,-405.7 432.71,-405.7"/>
<text text-anchor="middle" x="376.75" y="-388.4" font-family="Arial" font-size="14.00" fill="#ff6c60">canBeSerialized.ts</text>
</g>
<!-- ParseObject.ts&#45;&gt;canBeSerialized.ts -->
<g id="edge17" class="edge">
<title>ParseObject.ts&#45;&gt;canBeSerialized.ts</title>
<path fill="none" stroke="#757575" d="M275.39,-359.72C296.43,-364.96 320.22,-371.72 339.36,-377.94"/>
<polygon fill="#757575" stroke="#757575" points="338,-381.18 348.59,-381.05 340.23,-374.54 338,-381.18"/>
</g>
<!-- unique.ts -->
<g id="node15" class="node">
<title>unique.ts</title>
<path fill="none" stroke="#ff6c60" d="M1292.21,-146.7C1292.21,-146.7 1237.29,-146.7 1237.29,-146.7 1233.33,-146.7 1229.38,-142.74 1229.38,-138.78 1229.38,-138.78 1229.38,-130.87 1229.38,-130.87 1229.38,-126.91 1233.33,-122.95 1237.29,-122.95 1237.29,-122.95 1292.21,-122.95 1292.21,-122.95 1296.17,-122.95 1300.12,-126.91 1300.12,-130.87 1300.12,-130.87 1300.12,-138.78 1300.12,-138.78 1300.12,-142.74 1296.17,-146.7 1292.21,-146.7"/>
<text text-anchor="middle" x="1264.75" y="-129.4" font-family="Arial" font-size="14.00" fill="#ff6c60">unique.ts</text>
</g>
<!-- ParseObject.ts&#45;&gt;unique.ts -->
<g id="edge20" class="edge">
<title>ParseObject.ts&#45;&gt;unique.ts</title>
<path fill="none" stroke="#757575" d="M225.16,-339.45C231.42,-306.25 255.07,-217.58 311,-174.83 391.96,-112.93 433.09,-125.83 535,-125.83 535,-125.83 535,-125.83 991.88,-125.83 1071.25,-125.83 1163.66,-125.83 1217.72,-128.38"/>
<polygon fill="#757575" stroke="#757575" points="1217.3,-131.86 1227.48,-128.9 1217.68,-124.87 1217.3,-131.86"/>
</g>
<!-- unsavedChildren.ts -->
<g id="node16" class="node">
<title>unsavedChildren.ts</title>
<path fill="none" stroke="#ff6c60" d="M434.58,-363.7C434.58,-363.7 318.92,-363.7 318.92,-363.7 314.96,-363.7 311,-359.74 311,-355.78 311,-355.78 311,-347.87 311,-347.87 311,-343.91 314.96,-339.95 318.92,-339.95 318.92,-339.95 434.58,-339.95 434.58,-339.95 438.54,-339.95 442.5,-343.91 442.5,-347.87 442.5,-347.87 442.5,-355.78 442.5,-355.78 442.5,-359.74 438.54,-363.7 434.58,-363.7"/>
<text text-anchor="middle" x="376.75" y="-346.4" font-family="Arial" font-size="14.00" fill="#ff6c60">unsavedChildren.ts</text>
</g>
<!-- ParseObject.ts&#45;&gt;unsavedChildren.ts -->
<g id="edge21" class="edge">
<title>ParseObject.ts&#45;&gt;unsavedChildren.ts</title>
<path fill="none" stroke="#757575" d="M275.39,-345.39C283.12,-345.18 291.23,-345.08 299.34,-345.08"/>
<polygon fill="#757575" stroke="#757575" points="299.23,-348.57 309.25,-345.13 299.27,-341.58 299.23,-348.57"/>
</g>
<!-- ParseQuery.ts&#45;&gt;ParseObject.ts -->
<g id="edge29" class="edge">
<title>ParseQuery.ts&#45;&gt;ParseObject.ts</title>
<path fill="none" stroke="#757575" d="M641.43,-592.15C569.42,-607.23 411.76,-620.96 311,-548.83 253.17,-507.42 232.42,-418 225.95,-375.17"/>
<polygon fill="#757575" stroke="#757575" points="229.44,-374.88 224.64,-365.44 222.51,-375.82 229.44,-374.88"/>
</g>
<!-- ParseQuery.ts&#45;&gt;encode.ts -->
<g id="edge30" class="edge">
<title>ParseQuery.ts&#45;&gt;encode.ts</title>
<path fill="none" stroke="#757575" d="M732.07,-575.44C823.77,-567.22 1023.82,-548.09 1191.5,-523.83 1199.39,-522.68 1207.73,-521.32 1215.84,-519.92"/>
<polygon fill="#757575" stroke="#757575" points="1216.35,-523.39 1225.58,-518.19 1215.13,-516.49 1216.35,-523.39"/>
</g>
<!-- OfflineQuery.ts -->
<g id="node8" class="node">
<title>OfflineQuery.ts</title>
<path fill="none" stroke="#ff6c60" d="M866.58,-477.7C866.58,-477.7 775.67,-477.7 775.67,-477.7 771.71,-477.7 767.75,-473.74 767.75,-469.78 767.75,-469.78 767.75,-461.87 767.75,-461.87 767.75,-457.91 771.71,-453.95 775.67,-453.95 775.67,-453.95 866.58,-453.95 866.58,-453.95 870.54,-453.95 874.5,-457.91 874.5,-461.87 874.5,-461.87 874.5,-469.78 874.5,-469.78 874.5,-473.74 870.54,-477.7 866.58,-477.7"/>
<text text-anchor="middle" x="821.12" y="-460.4" font-family="Arial" font-size="14.00" fill="#ff6c60">OfflineQuery.ts</text>
</g>
<!-- ParseQuery.ts&#45;&gt;OfflineQuery.ts -->
<g id="edge28" class="edge">
<title>ParseQuery.ts&#45;&gt;OfflineQuery.ts</title>
<path fill="none" stroke="#757575" d="M696.45,-567.63C720.5,-547.83 768.22,-508.55 796.84,-484.99"/>
<polygon fill="#757575" stroke="#757575" points="798.74,-487.96 804.24,-478.9 794.3,-482.55 798.74,-487.96"/>
</g>
<!-- ObjectStateMutations.ts -->
<g id="node4" class="node">
<title>ObjectStateMutations.ts</title>
<path fill="none" stroke="#ff6c60" d="M1063.33,-401.7C1063.33,-401.7 918.42,-401.7 918.42,-401.7 914.46,-401.7 910.5,-397.74 910.5,-393.78 910.5,-393.78 910.5,-385.87 910.5,-385.87 910.5,-381.91 914.46,-377.95 918.42,-377.95 918.42,-377.95 1063.33,-377.95 1063.33,-377.95 1067.29,-377.95 1071.25,-381.91 1071.25,-385.87 1071.25,-385.87 1071.25,-393.78 1071.25,-393.78 1071.25,-397.74 1067.29,-401.7 1063.33,-401.7"/>
<text text-anchor="middle" x="990.88" y="-384.4" font-family="Arial" font-size="14.00" fill="#ff6c60">ObjectStateMutations.ts</text>
</g>
<!-- ObjectStateMutations.ts&#45;&gt;ParseObject.ts -->
<g id="edge3" class="edge">
<title>ObjectStateMutations.ts&#45;&gt;ParseObject.ts</title>
<path fill="none" stroke="#757575" d="M910.06,-399.55C755.33,-417.29 420.17,-450 311,-414.83 284.82,-406.39 259.85,-386.91 243.31,-371.83"/>
<polygon fill="#757575" stroke="#757575" points="245.8,-369.37 236.13,-365.04 240.99,-374.45 245.8,-369.37"/>
</g>
<!-- ObjectStateMutations.ts&#45;&gt;ParseOp.ts -->
<g id="edge4" class="edge">
<title>ObjectStateMutations.ts&#45;&gt;ParseOp.ts</title>
<path fill="none" stroke="#757575" d="M1013.97,-377.55C1040.69,-362.69 1085.88,-337.57 1116.4,-320.6"/>
<polygon fill="#757575" stroke="#757575" points="1117.78,-323.84 1124.82,-315.92 1114.38,-317.72 1117.78,-323.84"/>
</g>
<!-- ObjectStateMutations.ts&#45;&gt;ParseRelation.ts -->
<g id="edge5" class="edge">
<title>ObjectStateMutations.ts&#45;&gt;ParseRelation.ts</title>
<path fill="none" stroke="#757575" d="M910.29,-385.63C837.18,-381.41 725.87,-374.06 629.5,-363.83 621.52,-362.98 613.16,-361.97 604.88,-360.9"/>
<polygon fill="#757575" stroke="#757575" points="605.55,-357.46 595.17,-359.61 604.62,-364.4 605.55,-357.46"/>
</g>
<!-- ObjectStateMutations.ts&#45;&gt;encode.ts -->
<g id="edge6" class="edge">
<title>ObjectStateMutations.ts&#45;&gt;encode.ts</title>
<path fill="none" stroke="#757575" d="M1019.44,-402.09C1068.29,-423.84 1170.13,-469.16 1225.65,-493.87"/>
<polygon fill="#757575" stroke="#757575" points="1224.17,-497.04 1234.73,-497.91 1227.02,-490.65 1224.17,-497.04"/>
</g>
<!-- ParseOp.ts&#45;&gt;ParseObject.ts -->
<g id="edge22" class="edge">
<title>ParseOp.ts&#45;&gt;ParseObject.ts</title>
<path fill="none" stroke="#757575" d="M1107.02,-291.07C1026.55,-263.65 842.67,-199.83 681.62,-199.83 535,-199.83 535,-199.83 535,-199.83 434.37,-199.83 396.35,-179.51 311,-232.83 273.66,-256.15 248.28,-301.88 234.81,-329.55"/>
<polygon fill="#757575" stroke="#757575" points="231.69,-327.95 230.57,-338.48 238.02,-330.95 231.69,-327.95"/>
</g>
<!-- ParseOp.ts&#45;&gt;ParseRelation.ts -->
<g id="edge23" class="edge">
<title>ParseOp.ts&#45;&gt;ParseRelation.ts</title>
<path fill="none" stroke="#757575" d="M1106.89,-308.98C1018.75,-316.09 806.43,-324.9 629.5,-344.83 621.5,-345.73 613.13,-346.84 604.84,-347.99"/>
<polygon fill="#757575" stroke="#757575" points="604.55,-344.49 595.12,-349.34 605.51,-351.43 604.55,-344.49"/>
</g>
<!-- ParseOp.ts&#45;&gt;encode.ts -->
<g id="edge26" class="edge">
<title>ParseOp.ts&#45;&gt;encode.ts</title>
<path fill="none" stroke="#757575" d="M1159.08,-314.99C1179.78,-349.13 1231.84,-444.56 1253.77,-488.48"/>
<polygon fill="#757575" stroke="#757575" points="1250.57,-489.9 1258.1,-497.35 1256.86,-486.83 1250.57,-489.9"/>
</g>
<!-- ParseOp.ts&#45;&gt;decode.ts -->
<g id="edge25" class="edge">
<title>ParseOp.ts&#45;&gt;decode.ts</title>
<path fill="none" stroke="#757575" d="M1191.95,-296.29C1199.68,-296.07 1207.81,-296.02 1215.71,-296.15"/>
<polygon fill="#757575" stroke="#757575" points="1215.44,-299.64 1225.54,-296.42 1215.64,-292.64 1215.44,-299.64"/>
</g>
<!-- ParseOp.ts&#45;&gt;unique.ts -->
<g id="edge27" class="edge">
<title>ParseOp.ts&#45;&gt;unique.ts</title>
<path fill="none" stroke="#757575" d="M1158.71,-290.47C1177.79,-262.2 1224.86,-192.46 1248.98,-156.72"/>
<polygon fill="#757575" stroke="#757575" points="1251.86,-158.7 1254.55,-148.45 1246.06,-154.78 1251.86,-158.7"/>
</g>
<!-- arrayContainsObject.ts -->
<g id="node17" class="node">
<title>arrayContainsObject.ts</title>
<path fill="none" stroke="#ff6c60" d="M1484.08,-146.7C1484.08,-146.7 1345.92,-146.7 1345.92,-146.7 1341.96,-146.7 1338,-142.74 1338,-138.78 1338,-138.78 1338,-130.87 1338,-130.87 1338,-126.91 1341.96,-122.95 1345.92,-122.95 1345.92,-122.95 1484.08,-122.95 1484.08,-122.95 1488.04,-122.95 1492,-126.91 1492,-130.87 1492,-130.87 1492,-138.78 1492,-138.78 1492,-142.74 1488.04,-146.7 1484.08,-146.7"/>
<text text-anchor="middle" x="1415" y="-129.4" font-family="Arial" font-size="14.00" fill="#ff6c60">arrayContainsObject.ts</text>
</g>
<!-- ParseOp.ts&#45;&gt;arrayContainsObject.ts -->
<g id="edge24" class="edge">
<title>ParseOp.ts&#45;&gt;arrayContainsObject.ts</title>
<path fill="none" stroke="#757575" d="M1169.76,-290.47C1215.56,-261.28 1330.68,-187.92 1384.9,-153.37"/>
<polygon fill="#757575" stroke="#757575" points="1386.76,-156.34 1393.31,-148.01 1383,-150.43 1386.76,-156.34"/>
</g>
<!-- ParseRelation.ts&#45;&gt;ParseObject.ts -->
<g id="edge31" class="edge">
<title>ParseRelation.ts&#45;&gt;ParseObject.ts</title>
<path fill="none" stroke="#757575" d="M478.07,-345.34C466.38,-343.16 454.1,-341.07 442.5,-339.83 384.39,-333.61 369.04,-332.97 311,-339.83 302.99,-340.77 294.65,-342.19 286.44,-343.78"/>
<polygon fill="#757575" stroke="#757575" points="285.96,-340.3 276.85,-345.72 287.35,-347.16 285.96,-340.3"/>
</g>
<!-- ParseRelation.ts&#45;&gt;ParseQuery.ts -->
<g id="edge33" class="edge">
<title>ParseRelation.ts&#45;&gt;ParseQuery.ts</title>
<path fill="none" stroke="#757575" d="M542.91,-362.79C556.75,-390.5 592.9,-460.89 629.5,-515.83 639.48,-530.8 651.95,-546.73 661.96,-558.96"/>
<polygon fill="#757575" stroke="#757575" points="659,-560.88 668.08,-566.34 664.39,-556.41 659,-560.88"/>
</g>
<!-- ParseRelation.ts&#45;&gt;ParseOp.ts -->
<g id="edge32" class="edge">
<title>ParseRelation.ts&#45;&gt;ParseOp.ts</title>
<path fill="none" stroke="#757575" d="M562.43,-338.52C580.96,-333.68 606.71,-329.39 629.5,-326.83 799.17,-307.72 1001.4,-298.83 1095.43,-299.12"/>
<polygon fill="#757575" stroke="#757575" points="1095.35,-302.62 1105.38,-299.2 1095.4,-295.62 1095.35,-302.62"/>
</g>
<!-- encode.ts&#45;&gt;ParseObject.ts -->
<g id="edge48" class="edge">
<title>encode.ts&#45;&gt;ParseObject.ts</title>
<path fill="none" stroke="#757575" d="M1253.09,-523.05C1217.99,-555.37 1101.99,-637.83 991.88,-637.83 535,-637.83 535,-637.83 535,-637.83 433.79,-637.83 386.98,-663.69 311,-596.83 271.43,-562 293.22,-533.29 275,-483.83 260.78,-445.21 241.42,-400.94 230.92,-374.46"/>
<polygon fill="#757575" stroke="#757575" points="234.28,-373.44 227.42,-365.36 227.74,-375.95 234.28,-373.44"/>
</g>
<!-- encode.ts&#45;&gt;ParseOp.ts -->
<g id="edge49" class="edge">
<title>encode.ts&#45;&gt;ParseOp.ts</title>
<path fill="none" stroke="#757575" d="M1254.98,-498.56C1234.26,-464.37 1182.33,-369.17 1160.4,-325.25"/>
<polygon fill="#757575" stroke="#757575" points="1163.6,-323.83 1156.06,-316.38 1157.31,-326.9 1163.6,-323.83"/>
</g>
<!-- encode.ts&#45;&gt;ParseRelation.ts -->
<g id="edge50" class="edge">
<title>encode.ts&#45;&gt;ParseRelation.ts</title>
<path fill="none" stroke="#757575" d="M1227.27,-514.91C1143.81,-523.01 933.36,-536.33 767.75,-486.83 684.81,-462.03 600.48,-401.39 560.64,-370.14"/>
<polygon fill="#757575" stroke="#757575" points="562.91,-367.47 552.9,-363.99 558.55,-372.95 562.91,-367.47"/>
</g>
<!-- encode.ts&#45;&gt;ParseACL.ts -->
<g id="edge47" class="edge">
<title>encode.ts&#45;&gt;ParseACL.ts</title>
<path fill="none" stroke="#757575" d="M1302.4,-500.94C1319.09,-496.43 1339.23,-491 1357.77,-486"/>
<polygon fill="#757575" stroke="#757575" points="1358.56,-489.41 1367.31,-483.42 1356.74,-482.65 1358.56,-489.41"/>
</g>
<!-- OfflineQuery.ts&#45;&gt;ObjectStateMutations.ts -->
<g id="edge7" class="edge">
<title>OfflineQuery.ts&#45;&gt;ObjectStateMutations.ts</title>
<path fill="none" stroke="#757575" d="M848.58,-453.51C856.98,-449.38 866.24,-444.6 874.5,-439.83 891.15,-430.2 893.2,-424.23 910.5,-415.83 918.03,-412.17 926.19,-408.84 934.33,-405.87"/>
<polygon fill="#757575" stroke="#757575" points="935.22,-409.27 943.52,-402.69 932.93,-402.66 935.22,-409.27"/>
</g>
<!-- OfflineQuery.ts&#45;&gt;decode.ts -->
<g id="edge8" class="edge">
<title>OfflineQuery.ts&#45;&gt;decode.ts</title>
<path fill="none" stroke="#757575" d="M874.84,-455.19C936.61,-442.55 1035.12,-421.8 1071.25,-410.83 1126.15,-394.15 1142.19,-393.17 1191.5,-363.83 1210.71,-352.39 1229.93,-335.86 1243.71,-322.89"/>
<polygon fill="#757575" stroke="#757575" points="1246.06,-325.48 1250.83,-316.02 1241.2,-320.44 1246.06,-325.48"/>
</g>
<!-- equals.ts -->
<g id="node10" class="node">
<title>equals.ts</title>
<path fill="none" stroke="#ff6c60" d="M1017.96,-481.7C1017.96,-481.7 963.79,-481.7 963.79,-481.7 959.83,-481.7 955.88,-477.74 955.88,-473.78 955.88,-473.78 955.88,-465.87 955.88,-465.87 955.88,-461.91 959.83,-457.95 963.79,-457.95 963.79,-457.95 1017.96,-457.95 1017.96,-457.95 1021.92,-457.95 1025.88,-461.91 1025.88,-465.87 1025.88,-465.87 1025.88,-473.78 1025.88,-473.78 1025.88,-477.74 1021.92,-481.7 1017.96,-481.7"/>
<text text-anchor="middle" x="990.88" y="-464.4" font-family="Arial" font-size="14.00" fill="#ff6c60">equals.ts</text>
</g>
<!-- OfflineQuery.ts&#45;&gt;equals.ts -->
<g id="edge9" class="edge">
<title>OfflineQuery.ts&#45;&gt;equals.ts</title>
<path fill="none" stroke="#757575" d="M874.74,-467.08C896.96,-467.61 922.58,-468.22 944.01,-468.73"/>
<polygon fill="#757575" stroke="#757575" points="943.84,-472.23 953.92,-468.97 944.01,-465.23 943.84,-472.23"/>
</g>
<!-- decode.ts&#45;&gt;ParseObject.ts -->
<g id="edge44" class="edge">
<title>decode.ts&#45;&gt;ParseObject.ts</title>
<path fill="none" stroke="#757575" d="M1227.35,-299.18C1215.99,-296.23 1203.33,-292.93 1191.5,-290.83 967.85,-251.12 908.77,-255.83 681.62,-255.83 535,-255.83 535,-255.83 535,-255.83 433.15,-255.83 321.92,-306.82 263.85,-334.68"/>
<polygon fill="#757575" stroke="#757575" points="262.49,-331.45 255,-338.94 265.53,-337.76 262.49,-331.45"/>
</g>
<!-- decode.ts&#45;&gt;ParseOp.ts -->
<g id="edge45" class="edge">
<title>decode.ts&#45;&gt;ParseOp.ts</title>
<path fill="none" stroke="#757575" d="M1227.05,-309.19C1219.44,-309.5 1211.27,-309.62 1203.21,-309.56"/>
<polygon fill="#757575" stroke="#757575" points="1203.52,-306.07 1193.46,-309.39 1203.4,-313.07 1203.52,-306.07"/>
</g>
<!-- decode.ts&#45;&gt;ParseRelation.ts -->
<g id="edge46" class="edge">
<title>decode.ts&#45;&gt;ParseRelation.ts</title>
<path fill="none" stroke="#757575" d="M1227.27,-314.61C1215.9,-317.96 1203.26,-321.37 1191.5,-323.83 1103.92,-342.14 1081.35,-349.83 991.88,-349.83 820.12,-349.83 820.12,-349.83 820.12,-349.83 746.78,-349.83 662.74,-350.17 605.4,-350.45"/>
<polygon fill="#757575" stroke="#757575" points="605.44,-346.95 595.45,-350.5 605.47,-353.95 605.44,-346.95"/>
</g>
<!-- decode.ts&#45;&gt;ParseACL.ts -->
<g id="edge43" class="edge">
<title>decode.ts&#45;&gt;ParseACL.ts</title>
<path fill="none" stroke="#757575" d="M1276.65,-315.18C1301.82,-343.7 1364.2,-414.39 1395.49,-449.85"/>
<polygon fill="#757575" stroke="#757575" points="1392.84,-452.14 1402.08,-457.32 1398.09,-447.51 1392.84,-452.14"/>
</g>
<!-- equals.ts&#45;&gt;ParseObject.ts -->
<g id="edge52" class="edge">
<title>equals.ts&#45;&gt;ParseObject.ts</title>
<path fill="none" stroke="#757575" d="M955.57,-476.88C852.14,-496.39 536.57,-542.91 311,-436.83 280.51,-422.49 254.09,-393.17 238.45,-373.02"/>
<polygon fill="#757575" stroke="#757575" points="241.37,-371.08 232.58,-365.17 235.77,-375.28 241.37,-371.08"/>
</g>
<!-- equals.ts&#45;&gt;ParseACL.ts -->
<g id="edge51" class="edge">
<title>equals.ts&#45;&gt;ParseACL.ts</title>
<path fill="none" stroke="#757575" d="M1026.06,-469.91C1098.57,-470.08 1268.4,-470.48 1357.37,-470.69"/>
<polygon fill="#757575" stroke="#757575" points="1357.32,-474.19 1367.33,-470.72 1357.34,-467.19 1357.32,-474.19"/>
</g>
<!-- ParseRole.ts -->
<g id="node12" class="node">
<title>ParseRole.ts</title>
<path fill="none" stroke="#ff6c60" d="M1613.33,-461.7C1613.33,-461.7 1535.92,-461.7 1535.92,-461.7 1531.96,-461.7 1528,-457.74 1528,-453.78 1528,-453.78 1528,-445.87 1528,-445.87 1528,-441.91 1531.96,-437.95 1535.92,-437.95 1535.92,-437.95 1613.33,-437.95 1613.33,-437.95 1617.29,-437.95 1621.25,-441.91 1621.25,-445.87 1621.25,-445.87 1621.25,-453.78 1621.25,-453.78 1621.25,-457.74 1617.29,-461.7 1613.33,-461.7"/>
<text text-anchor="middle" x="1574.62" y="-444.4" font-family="Arial" font-size="14.00" fill="#ff6c60">ParseRole.ts</text>
</g>
<!-- ParseACL.ts&#45;&gt;ParseRole.ts -->
<g id="edge10" class="edge">
<title>ParseACL.ts&#45;&gt;ParseRole.ts</title>
<path fill="none" stroke="#757575" d="M1461.17,-458.64C1478.34,-455.72 1498.13,-452.97 1516.28,-450.94"/>
<polygon fill="#757575" stroke="#757575" points="1516.54,-454.43 1526.12,-449.91 1515.81,-447.47 1516.54,-454.43"/>
</g>
<!-- ParseUser.ts -->
<g id="node13" class="node">
<title>ParseUser.ts</title>
<path fill="none" stroke="#ff6c60" d="M1613.33,-503.7C1613.33,-503.7 1535.92,-503.7 1535.92,-503.7 1531.96,-503.7 1528,-499.74 1528,-495.78 1528,-495.78 1528,-487.87 1528,-487.87 1528,-483.91 1531.96,-479.95 1535.92,-479.95 1535.92,-479.95 1613.33,-479.95 1613.33,-479.95 1617.29,-479.95 1621.25,-483.91 1621.25,-487.87 1621.25,-487.87 1621.25,-495.78 1621.25,-495.78 1621.25,-499.74 1617.29,-503.7 1613.33,-503.7"/>
<text text-anchor="middle" x="1574.62" y="-486.4" font-family="Arial" font-size="14.00" fill="#ff6c60">ParseUser.ts</text>
</g>
<!-- ParseACL.ts&#45;&gt;ParseUser.ts -->
<g id="edge11" class="edge">
<title>ParseACL.ts&#45;&gt;ParseUser.ts</title>
<path fill="none" stroke="#757575" d="M1461.17,-476.84C1478.34,-479.13 1498.13,-481.77 1516.28,-484.19"/>
<polygon fill="#757575" stroke="#757575" points="1515.75,-487.65 1526.13,-485.5 1516.68,-480.71 1515.75,-487.65"/>
</g>
<!-- ParseRole.ts&#45;&gt;ParseObject.ts -->
<g id="edge35" class="edge">
<title>ParseRole.ts&#45;&gt;ParseObject.ts</title>
<path fill="none" stroke="#757575" d="M1572.3,-437.66C1566.16,-383.18 1538.65,-162.25 1492,-113.83 1419.5,-38.56 1370.25,-49.83 1265.75,-49.83 535,-49.83 535,-49.83 535,-49.83 434.5,-49.83 388.01,-16.25 311,-80.83 234.88,-144.65 224.27,-275.19 223.23,-328.43"/>
<polygon fill="#757575" stroke="#757575" points="219.73,-328.13 223.14,-338.16 226.73,-328.19 219.73,-328.13"/>
</g>
<!-- ParseRole.ts&#45;&gt;ParseACL.ts -->
<g id="edge34" class="edge">
<title>ParseRole.ts&#45;&gt;ParseACL.ts</title>
<path fill="none" stroke="#757575" d="M1527.63,-462.15C1510.38,-465.06 1490.57,-467.8 1472.47,-469.8"/>
<polygon fill="#757575" stroke="#757575" points="1472.26,-466.31 1462.67,-470.82 1472.98,-473.27 1472.26,-466.31"/>
</g>
<!-- ParseUser.ts&#45;&gt;ParseObject.ts -->
<g id="edge38" class="edge">
<title>ParseUser.ts&#45;&gt;ParseObject.ts</title>
<path fill="none" stroke="#757575" d="M1567.19,-504.02C1539.06,-555.42 1421.41,-751.83 1265.75,-751.83 679.62,-751.83 679.62,-751.83 679.62,-751.83 511.98,-751.83 432.68,-787.15 311,-671.83 267.11,-630.23 236.27,-441.6 226.6,-375.11"/>
<polygon fill="#757575" stroke="#757575" points="230.08,-374.75 225.21,-365.35 223.15,-375.74 230.08,-374.75"/>
</g>
<!-- ParseSession.ts -->
<g id="node18" class="node">
<title>ParseSession.ts</title>
<path fill="none" stroke="#ff6c60" d="M1762.83,-503.7C1762.83,-503.7 1665.17,-503.7 1665.17,-503.7 1661.21,-503.7 1657.25,-499.74 1657.25,-495.78 1657.25,-495.78 1657.25,-487.87 1657.25,-487.87 1657.25,-483.91 1661.21,-479.95 1665.17,-479.95 1665.17,-479.95 1762.83,-479.95 1762.83,-479.95 1766.79,-479.95 1770.75,-483.91 1770.75,-487.87 1770.75,-487.87 1770.75,-495.78 1770.75,-495.78 1770.75,-499.74 1766.79,-503.7 1762.83,-503.7"/>
<text text-anchor="middle" x="1714" y="-486.4" font-family="Arial" font-size="14.00" fill="#ff6c60">ParseSession.ts</text>
</g>
<!-- ParseUser.ts&#45;&gt;ParseSession.ts -->
<g id="edge39" class="edge">
<title>ParseUser.ts&#45;&gt;ParseSession.ts</title>
<path fill="none" stroke="#757575" d="M1621.37,-485.42C1629.11,-485.18 1637.3,-485.06 1645.46,-485.08"/>
<polygon fill="#757575" stroke="#757575" points="1645.4,-488.58 1655.43,-485.16 1645.46,-481.58 1645.4,-488.58"/>
</g>
<!-- canBeSerialized.ts&#45;&gt;ParseObject.ts -->
<g id="edge41" class="edge">
<title>canBeSerialized.ts&#45;&gt;ParseObject.ts</title>
<path fill="none" stroke="#757575" d="M312.61,-383.08C294.72,-378.4 275.85,-372.93 260.09,-367.82"/>
<polygon fill="#757575" stroke="#757575" points="261.25,-364.51 250.66,-364.65 259.02,-371.15 261.25,-364.51"/>
</g>
<!-- canBeSerialized.ts&#45;&gt;ParseRelation.ts -->
<g id="edge42" class="edge">
<title>canBeSerialized.ts&#45;&gt;ParseRelation.ts</title>
<path fill="none" stroke="#757575" d="M422.81,-381.5C440.33,-376.71 460.59,-371.17 479.02,-366.13"/>
<polygon fill="#757575" stroke="#757575" points="479.75,-369.56 488.47,-363.55 477.9,-362.81 479.75,-369.56"/>
</g>
<!-- unique.ts&#45;&gt;ParseObject.ts -->
<g id="edge53" class="edge">
<title>unique.ts&#45;&gt;ParseObject.ts</title>
<path fill="none" stroke="#757575" d="M1228.99,-140.67C1177.29,-143.83 1077.07,-143.83 991.88,-143.83 535,-143.83 535,-143.83 535,-143.83 433.09,-143.83 391.96,-130.93 311,-192.83 265.18,-227.85 241.02,-293.7 230.35,-328.84"/>
<polygon fill="#757575" stroke="#757575" points="226.99,-327.85 227.54,-338.43 233.71,-329.81 226.99,-327.85"/>
</g>
<!-- unique.ts&#45;&gt;arrayContainsObject.ts -->
<g id="edge54" class="edge">
<title>unique.ts&#45;&gt;arrayContainsObject.ts</title>
<path fill="none" stroke="#757575" d="M1300.51,-134.83C1308.39,-134.83 1317.11,-134.83 1326.11,-134.83"/>
<polygon fill="#757575" stroke="#757575" points="1326.11,-138.33 1336.11,-134.83 1326.11,-131.33 1326.11,-138.33"/>
</g>
<!-- unsavedChildren.ts&#45;&gt;ParseObject.ts -->
<g id="edge55" class="edge">
<title>unsavedChildren.ts&#45;&gt;ParseObject.ts</title>
<path fill="none" stroke="#757575" d="M310.77,-358.51C302.83,-358.6 294.72,-358.6 286.81,-358.49"/>
<polygon fill="#757575" stroke="#757575" points="286.97,-354.99 276.9,-358.29 286.83,-361.99 286.97,-354.99"/>
</g>
<!-- unsavedChildren.ts&#45;&gt;ParseRelation.ts -->
<g id="edge56" class="edge">
<title>unsavedChildren.ts&#45;&gt;ParseRelation.ts</title>
<path fill="none" stroke="#757575" d="M442.62,-351.41C450.67,-351.36 458.92,-351.31 467.01,-351.26"/>
<polygon fill="#757575" stroke="#757575" points="466.83,-354.76 476.81,-351.2 466.78,-347.76 466.83,-354.76"/>
</g>
<!-- arrayContainsObject.ts&#45;&gt;ParseObject.ts -->
<g id="edge40" class="edge">
<title>arrayContainsObject.ts&#45;&gt;ParseObject.ts</title>
<path fill="none" stroke="#757575" d="M1371.49,-122.48C1319.73,-108.55 1229.41,-87.83 1150.38,-87.83 535,-87.83 535,-87.83 535,-87.83 433.63,-87.83 389.09,-66.18 311,-130.83 249.25,-181.95 230.76,-282.72 225.43,-328.37"/>
<polygon fill="#757575" stroke="#757575" points="221.96,-327.88 224.41,-338.19 228.93,-328.61 221.96,-327.88"/>
</g>
<!-- ParseSession.ts&#45;&gt;ParseObject.ts -->
<g id="edge36" class="edge">
<title>ParseSession.ts&#45;&gt;ParseObject.ts</title>
<path fill="none" stroke="#757575" d="M1711.59,-479.48C1702.29,-404.35 1642.86,-11.83 1416,-11.83 535,-11.83 535,-11.83 535,-11.83 434.78,-11.83 387.19,27.28 311,-37.83 265.93,-76.34 235.94,-262.1 226.54,-328.32"/>
<polygon fill="#757575" stroke="#757575" points="223.09,-327.68 225.18,-338.06 230.03,-328.64 223.09,-327.68"/>
</g>
<!-- ParseSession.ts&#45;&gt;ParseUser.ts -->
<g id="edge37" class="edge">
<title>ParseSession.ts&#45;&gt;ParseUser.ts</title>
<path fill="none" stroke="#757575" d="M1656.94,-498.47C1648.99,-498.6 1640.81,-498.61 1632.84,-498.49"/>
<polygon fill="#757575" stroke="#757575" points="1632.96,-494.99 1622.88,-498.26 1632.8,-501.99 1632.96,-494.99"/>
</g>
</g>
</svg>
